<svg xmlns="http://www.w3.org/2000/svg" width="35.058" height="35" viewBox="0 0 35.058 35">
  <g id="Group_18714" data-name="Group 18714" transform="translate(2684.785 781.056)">
    <path id="Path_4877" data-name="Path 4877" d="M-2667.437-781.056h.205a.425.425,0,0,1,.152.362c.012,1.813.018,3.626,0,5.439a.42.42,0,0,1-.042.2c-.075.215-.263.221-.446.242a8.293,8.293,0,0,0-2.5.619,7.049,7.049,0,0,0-3.2,2.81,6.836,6.836,0,0,0-1.034,3.663,6.986,6.986,0,0,0,1.656,4.521,7.077,7.077,0,0,0,1.128,1.083c.139.108.267.218.233.421-.076.161-.238.2-.382.265a11.554,11.554,0,0,0-5.779,5.216,11.067,11.067,0,0,0-1.384,5.077c0,.192.012.4-.219.491-.329.007-.511-.254-.694-.445a18.876,18.876,0,0,1-2.369-2.95,16.585,16.585,0,0,1-2.5-6.555,22.374,22.374,0,0,1-.116-4.121,16.792,16.792,0,0,1,.129-1.938,16.784,16.784,0,0,1,1.255-4.1,16.9,16.9,0,0,1,2.434-3.939,17.752,17.752,0,0,1,4.708-4.055,16.958,16.958,0,0,1,5.591-2.12,14.547,14.547,0,0,1,1.8-.142c.056,0,.115.009.161-.034h.273a.09.09,0,0,0,.137,0h.342A.719.719,0,0,0-2667.437-781.056Z" fill="#30373e"/>
    <path id="Path_4878" data-name="Path 4878" d="M-2492.691-774.975q0-3.041,0-6.081h.615a.538.538,0,0,0,.41,0h.41c.528.069,1.062.059,1.59.117a13.476,13.476,0,0,1,2.97.755,17.2,17.2,0,0,1,3.686,1.846,17.022,17.022,0,0,1,1.826,1.374,17.81,17.81,0,0,1,3.375,3.871,17.5,17.5,0,0,1,2.355,5.608,15.483,15.483,0,0,1,.233,2.234c.009.111-.035.227.033.332v.342a.538.538,0,0,0,0,.41v1.231a.538.538,0,0,0,0,.41v.41c-.071.5-.065,1.013-.113,1.519a12.526,12.526,0,0,1-.72,2.938,17.25,17.25,0,0,1-2.583,4.778,18.579,18.579,0,0,1-1.8,2.043c-.13.126-.258.271-.473.18a1.033,1.033,0,0,1-.192-.737,11.368,11.368,0,0,0-2.825-6.914,11.337,11.337,0,0,0-4.2-3.084c-.19-.08-.435-.11-.485-.378.01-.226.194-.327.338-.445a6.965,6.965,0,0,0,2.56-4.449,6.808,6.808,0,0,0-1.387-5.36,7.009,7.009,0,0,0-5.251-2.8c-.124-.009-.253,0-.347-.107Z" transform="translate(-174.539)" fill="#30373e"/>
    <path id="Path_4879" data-name="Path 4879" d="M-2610.117-554.545a17.029,17.029,0,0,1-8.05-1.947,16.338,16.338,0,0,1-3.764-2.64,12.092,12.092,0,0,1,.812-4.3,11.741,11.741,0,0,1,6.672-6.707c.073-.03.145-.065.218-.1.153-.092.28-.016.412.059a7.348,7.348,0,0,0,3.151,1.018c.223.016.49.006.638.251a1.223,1.223,0,0,1,.066.538q0,6.613,0,13.225C-2609.965-554.939-2609.916-554.707-2610.117-554.545Z" transform="translate(-57.111 -191.513)" fill="#4ffc34"/>
    <path id="Path_4880" data-name="Path 4880" d="M-2564.613-700a7.912,7.912,0,0,1-4.107-1.286,8.48,8.48,0,0,1-1.859-1.89,7.242,7.242,0,0,1,4.916-11.244c.348-.05.7-.06,1.054-.088l-.008.013a.365.365,0,0,1,.152.292c.008.114.012.228.012.341q0,6.614,0,13.229a.9.9,0,0,1-.1.594Z" transform="translate(-102.619 -60.47)" fill="#fedaa8"/>
    <path id="Path_4881" data-name="Path 4881" d="M-2492.7-554.668l0-14.409,0-.024c.2-.2.468-.161.706-.189a7.317,7.317,0,0,0,2.8-.9c.19-.107.373-.33.646-.185a12.554,12.554,0,0,1,3.386,1.994,11.7,11.7,0,0,1,4.162,7.543c.071.52.081,1.042.129,1.563a16.255,16.255,0,0,1-4.569,3.048A16.687,16.687,0,0,1-2492.7-554.668Z" transform="translate(-174.532 -191.39)" fill="#287e1a"/>
    <path id="Path_4882" data-name="Path 4882" d="M-2488.594-701.217a8.515,8.515,0,0,1-2.308,1.037,6.512,6.512,0,0,1-1.842.232q0-6.962,0-13.925c0-.182,0-.364-.005-.546a7.241,7.241,0,0,1,6.7,4.44,7.228,7.228,0,0,1-2.2,8.476C-2488.371-701.41-2488.481-701.312-2488.594-701.217Z" transform="translate(-174.486 -60.544)" fill="#fec373"/>
  </g>
</svg>
