<svg xmlns="http://www.w3.org/2000/svg" xmlns:xlink="http://www.w3.org/1999/xlink" width="150" height="150" viewBox="0 0 150 150">
  <defs>
    <clipPath id="clip-path">
      <circle id="Ellipse_3303" data-name="Ellipse 3303" cx="75" cy="75" r="75" fill="none"/>
    </clipPath>
  </defs>
  <g id="Group_18709" data-name="Group 18709" transform="translate(585.298 -521.766)">
    <circle id="Ellipse_3302" data-name="Ellipse 3302" cx="75" cy="75" r="75" transform="translate(-585.298 521.766)" fill="#1f2630"/>
    <path id="Path_4856" data-name="Path 4856" d="M-429.454,615.5c-.071,6.173-2.8,10.684-8.542,13.078a13.324,13.324,0,0,1-17.313-7.42,13.4,13.4,0,0,1,7.381-17.44c.449-.183.917-.32,1.376-.478a3.164,3.164,0,0,1,2.248-.766A13.769,13.769,0,0,1-429.3,614.217,1.543,1.543,0,0,1-429.454,615.5Z" transform="translate(-86.947 -54.343)" fill="#4ffc34"/>
    <path id="Path_4857" data-name="Path 4857" d="M-318.536,648.328a13.354,13.354,0,0,1,13.34,13.433,13.449,13.449,0,0,1-13.433,13.384,13.549,13.549,0,0,1-13.386-13.48A13.455,13.455,0,0,1-318.536,648.328Z" transform="translate(-170.706 -85.299)" fill="#4ffc34"/>
    <path id="Path_4858" data-name="Path 4858" d="M-409.322,588.241a13.434,13.434,0,0,0-17.1-12.26c.11-7.168,4.32-12.433,11.02-13.781a13.418,13.418,0,0,1,15.471,10.2A13.374,13.374,0,0,1-409.322,588.241Z" transform="translate(-107.079 -27.084)" fill="#287e1a"/>
    <g id="Group_18708" data-name="Group 18708" transform="translate(-585.298 521.766)">
      <g id="Group_18707" data-name="Group 18707" transform="translate(0)" clip-path="url(#clip-path)">
        <g id="Group_18706" data-name="Group 18706" transform="translate(0 77.306)">
          <path id="Path_4859" data-name="Path 4859" d="M-299.722,768.764c-.724,2.145-2.612,3.153-4.294,4.333q-21.272,14.917-42.57,29.8c-1.773,1.24-3.47,2.59-5.654,3.138-2.155.541-4.212.046-6.3-.316q-6.6-1.145-13.2-2.3a2.471,2.471,0,0,1-.51-.213,1.277,1.277,0,0,1-.388-.862,74.351,74.351,0,0,1,.126-9.616c.549-.83,1.338-.432,2.016-.328,3.151.481,6.273,1.137,9.421,1.645a17.9,17.9,0,0,0,20.412-17.253,10.01,10.01,0,0,1,.075-3.281q9.509-4.846,19.019-9.693c2.47-1.26,4.923-2.552,7.405-3.788a9.255,9.255,0,0,1,12.154,2.908,22.862,22.862,0,0,1,2.288,3.6Z" transform="translate(442.035 -758.882)" fill="#febd84"/>
          <path id="Path_4860" data-name="Path 4860" d="M-515.541,794.884q.014,5.4.028,10.8-9.866-1.723-19.732-3.443c-3.085-.535-6.178-1.025-9.26-1.577a1.854,1.854,0,0,0-1.526.384q-11.447,8.056-22.918,16.078c-3.141,2.2-6.3,4.374-9.433,6.585a4.273,4.273,0,0,1-4.693.459,4.172,4.172,0,0,1-2.215-4.147q.026-17.227-.007-34.454a4.96,4.96,0,0,1,2.361-4.408c5.739-3.966,11.41-8.032,17.165-11.976a36.1,36.1,0,0,1,20.233-6.622,69.911,69.911,0,0,1,12.9,1.484c5.175.882,10.34,1.826,15.509,2.745.545.1,1.086.212,1.629.318a1.711,1.711,0,0,1,.406,1.284c.011,5.484.069,10.968-.028,16.451a2.369,2.369,0,0,1-.07.405,1.287,1.287,0,0,1-.216.438c-.766.434-1.542.1-2.293-.03-3.1-.545-6.215-1.006-9.289-1.659a4.423,4.423,0,0,0-5.249,3.535c-.386,2.084,1.451,4.28,3.916,4.72,3.689.658,7.382,1.294,11.07,1.956a4.031,4.031,0,0,1,1.577.5C-515.634,794.766-515.587,794.825-515.541,794.884Z" transform="translate(585.298 -761.359)" fill="#fed9aa"/>
          <path id="Path_4861" data-name="Path 4861" d="M-371.331,795.08q.017-9.28.034-18.559c3.988.683,7.979,1.347,11.962,2.057a20.079,20.079,0,0,1,5.233,1.19,8.949,8.949,0,0,1,5.594,8.346c.015.554,0,1.109-.006,1.663a4.323,4.323,0,0,1-1.005,3.337c-2.142,3.271-5.19,5-9.141,4.5-3.838-.484-7.627-1.323-11.444-1.972A1.764,1.764,0,0,1-371.331,795.08Z" transform="translate(441.09 -770.77)" fill="#febd84"/>
          <path id="Path_4862" data-name="Path 4862" d="M-372.425,813.429c3.991.675,7.988,1.318,11.972,2.033a8.952,8.952,0,0,0,10.368-6.037c.149-.437.317-.867.476-1.3l8.872-4.379a16.858,16.858,0,0,1-3.129,13.493,17.6,17.6,0,0,1-16.2,7.548,84.116,84.116,0,0,1-8.706-1.459c-1.221-.215-2.438-.455-3.657-.684l.017-.022a19.5,19.5,0,0,1,0-9.166Z" transform="translate(442.184 -789.12)" fill="#f48d4e"/>
          <path id="Path_4863" data-name="Path 4863" d="M-406.805,828.912l0,9.166c-4.024-.707-8.039-1.476-12.077-2.093-1.823-.278-3.357-.8-4.4-2.443a4.061,4.061,0,0,1-.011-4.558,4.178,4.178,0,0,1,4.289-2.253C-414.929,827.383-410.872,828.177-406.805,828.912Z" transform="translate(476.583 -804.575)" fill="#f9a365"/>
        </g>
      </g>
    </g>
  </g>
</svg>
