<svg xmlns="http://www.w3.org/2000/svg" width="120" height="120" viewBox="0 0 120 120">
  <g id="Group_18712" data-name="Group 18712" transform="translate(1229.075 128.32)">
    <circle id="Ellipse_3304" data-name="Ellipse 3304" cx="60" cy="60" r="60" transform="translate(-1229.075 -128.32)" fill="#1f2630"/>
    <g id="Group_18711" data-name="Group 18711" transform="translate(-1203.761 -106.401)">
      <path id="Path_4864" data-name="Path 4864" d="M-1098.352-43.1a17.609,17.609,0,0,1,4.078-.559c2.335-.2,4.678-.319,7.017-.474.137-.009.305.044.373-.148h1.041a.541.541,0,0,0,.595,0h1.041a1.938,1.938,0,0,0,1.189,0h.3a2.978,2.978,0,0,0,1.487,0h1.636a4.953,4.953,0,0,0,1.34.077h.868a4.052,4.052,0,0,0,1.212-.077h1.041a.541.541,0,0,0,.595,0h.595a7.442,7.442,0,0,0,2.446.257c2.421.159,4.839.33,7.25.6a8.114,8.114,0,0,1,7.534,8.115q.254,5.192.506,10.385a.635.635,0,0,1-.266.778c-2.21,1.546-2.858,3.864-3.155,6.358-.044.368-.113.732-.173,1.1-.03.179-.048.42-.348.364a1.878,1.878,0,0,1-.274-.7,4.359,4.359,0,0,1-.06-.888c-.026-3.54-.2-7.073-.424-10.605-.06-.938-.086-1.877-.15-2.817a6.411,6.411,0,0,0-5.827-6.283,21.842,21.842,0,0,0-2.366-.225.811.811,0,0,0-.846.461,4.128,4.128,0,0,1-3.627,2.215,67.572,67.572,0,0,1-8.9.3,47.88,47.88,0,0,1-5.253-.406,3.782,3.782,0,0,1-2.828-1.954,1.02,1.02,0,0,0-1.126-.612c-.885.1-1.781.126-2.657.292a6.521,6.521,0,0,0-5.406,6.377c-.17,3.906-.346,7.811-.482,11.719-.182,5.2-.107,10.4-.074,15.6.017,2.743.156,5.491.284,8.234q.118,2.557.3,5.112a6.429,6.429,0,0,0,5.9,6.063c2.929.305,5.865.507,8.811.635,2.28.1,4.557.145,6.832.1,3.934-.084,7.865-.288,11.775-.764a6.463,6.463,0,0,0,5.451-5.768c.245-3.158.355-6.324.5-9.488.086-1.929.026-3.861.185-5.787a37.838,37.838,0,0,0,.1-4.077c.015-.363-.081-.75.186-1.07.48,0,.338.4.367.631a29.837,29.837,0,0,0,1.917,7.5c.435,1.075,1,2.091,1.532,3.118a2.494,2.494,0,0,1,.346.89c-.035,2-.125,4-.206,6-.083,2.048-.225,4.094-.339,6.141a9,9,0,0,1-1.852,4.932,9.206,9.206,0,0,1-6.506,3.134c-2.392.188-4.783.4-7.178.553-2.743.171-5.491.2-8.24.167-1.189-.014-2.378,0-3.567,0a1.957,1.957,0,0,1-1.078-.21c-3.731-.183-7.462-.367-11.179-.762A7.734,7.734,0,0,1-1098.5,21a13.014,13.014,0,0,1-1.884-2.828,10.586,10.586,0,0,1-.813-3.9c-.132-1.973-.252-3.949-.323-5.925-.14-3.93-.234-7.863-.355-11.793-.141-4.581-.123-9.159-.067-13.735.041-3.386.114-6.777.283-10.16.174-3.457.26-6.92.6-10.367A8.674,8.674,0,0,1-1098.352-43.1Z" transform="translate(1109.818 44.28)" fill="#1c345e"/>
      <path id="Path_4865" data-name="Path 4865" d="M-935.429,72.837a10.191,10.191,0,0,0,1.877-6.041c.14-3.433.366-6.863.461-10.3.007-.246.053-.49.082-.736.383-.042.479.291.645.514.281.376.512.79.807,1.156.386.479.545.48.856-.07a4.61,4.61,0,0,0,.187-4.352,28.821,28.821,0,0,1-2.312-8.263,30.47,30.47,0,0,1,.5-10.472,6.59,6.59,0,0,1,3.655-4.689,1.072,1.072,0,0,0,.432-.279,6.514,6.514,0,0,1,4.736,6.063,14.231,14.231,0,0,1-.471,3.057,13.971,13.971,0,0,0,1.722,9.4,35.317,35.317,0,0,1,4.509,10.981A18.3,18.3,0,0,1-920.1,72.4a23.973,23.973,0,0,1-2.03,2.993,19.108,19.108,0,0,1-7.588.184,14.077,14.077,0,0,1-5.113-2.111C-935.075,73.3-935.339,73.152-935.429,72.837Z" transform="translate(986.704 -10.113)" fill="#fedccd"/>
      <path id="Path_4866" data-name="Path 4866" d="M-1010.245,196.207a14.688,14.688,0,0,0,5.468,2.487,17.184,17.184,0,0,0,7.079-.013c.266-.054.526-.164.753.084a27.411,27.411,0,0,1-8.419,7.247,26.836,26.836,0,0,1-8.792,3.206,22.816,22.816,0,0,1-13.553-1.428,20.081,20.081,0,0,1-7.109-5.591c-.622-.735-1.24-1.472-1.826-2.236,2.747,0,5.494.03,8.24-.023a129.473,129.473,0,0,0,12.952-.864A8.311,8.311,0,0,0-1010.245,196.207Z" transform="translate(1061.52 -133.483)" fill="#fecabd"/>
      <path id="Path_4867" data-name="Path 4867" d="M-1107.669-39.754c.066.045.316-.027.109.188a8.744,8.744,0,0,0-2.649,6c-.049,1.647-.194,3.295-.286,4.943-.141,2.54-.192,5.082-.32,7.619-.079,1.558-.025,3.114-.111,4.667-.262,4.7-.171,9.405-.113,14.106.03,2.4.036,4.8.138,7.192.1,2.416.152,4.836.307,7.247a66.9,66.9,0,0,0,.562,7.509,8.637,8.637,0,0,0,2.125,4.167c.07.08.647.214.088.465a7.964,7.964,0,0,1-5.622-6.66c-.19-2.735-.326-5.473-.486-8.21a3.341,3.341,0,0,1-.339-1.721c-.005-2.81-.267-5.614-.164-8.425a3.62,3.62,0,0,1,.127-1.315.387.387,0,0,0-.129-.463,2.211,2.211,0,0,1-.148-1.088c0-2.788.015-5.577-.011-8.365-.009-1.018.448-1.968.36-2.988l.064-4.5a10.533,10.533,0,0,0-.115-2.418c.106-2.834.2-5.669.431-8.5.052-.626-.159-1.295.255-1.873.211-.735.18-1.513.437-2.244A7.887,7.887,0,0,1-1107.669-39.754Z" transform="translate(1119.135 40.934)" fill="#21386b"/>
      <path id="Path_4868" data-name="Path 4868" d="M-933.3,28.725c.139.221-.011.3-.18.377-2.522,1.131-3.578,3.26-3.975,5.839a34.087,34.087,0,0,0-.453,6.4,28.557,28.557,0,0,0,2.467,10.878,4.927,4.927,0,0,1-.387,5.061c-.282.425-.466.405-.742-.007-.479-.714-1-1.4-1.5-2.1a27.9,27.9,0,0,1-3.474-9.037,22.1,22.1,0,0,1-.408-3,2.311,2.311,0,0,1-.319-1.614c-.01-.415,0-.831-.005-1.248,0-.656,0-1.312.005-1.968,0-.287-.039-.592.208-.819a20.787,20.787,0,0,0,.558-3.073,6.923,6.923,0,0,1,3.038-4.916.738.738,0,0,0,.309-.62c.157.287.375.231.616.124A6.775,6.775,0,0,1-933.3,28.725Z" transform="translate(991.767 -9.533)" fill="#fecabd"/>
      <path id="Path_4869" data-name="Path 4869" d="M-1126.443-10.682c-.122,2.761-.207,5.524-.382,8.282a44.281,44.281,0,0,1-.19,4.506c.149-.964-.291-1.338-1.219-1.643a5.768,5.768,0,0,1-2.2-9.324A5.308,5.308,0,0,1-1126.443-10.682Z" transform="translate(1131.984 19.446)" fill="#fecabd"/>
      <path id="Path_4870" data-name="Path 4870" d="M-1127.2,103.21a3.3,3.3,0,0,1,.083,1.178c.041,3.592.157,7.181.311,10.769a5.9,5.9,0,0,1-5.2-5.363,5.891,5.891,0,0,1,4.266-6.006c.179-.042.483-.011.489-.344A.181.181,0,0,1-1127.2,103.21Z" transform="translate(1132.019 -64.741)" fill="#fecabd"/>
      <path id="Path_4871" data-name="Path 4871" d="M-1127.185,68.014l-.052.233a5.73,5.73,0,0,1-4.722-5.011,5.766,5.766,0,0,1,4.179-6.281c.461-.139.61-.284.583-.722a.792.792,0,0,1,.1-.638q-.043,4.954-.084,9.908C-1127.185,66.34-1127.183,67.177-1127.185,68.014Z" transform="translate(1132 -29.545)" fill="#fecabd"/>
      <path id="Path_4872" data-name="Path 4872" d="M-1056.691,11.938c.016,3.69-.207,7.373-.344,11.059a41.681,41.681,0,0,1-.327,4.586,6.837,6.837,0,0,1-6.268,5.659,141.909,141.909,0,0,1-16.233.656c-3.635-.084-7.265-.314-10.879-.729a6.757,6.757,0,0,1-5.808-6.375c-.186-4-.387-8.007-.506-12.015-.155-5.226-.131-10.451-.05-15.675.056-3.636.265-7.269.426-10.9.045-1.011.111-2.027.255-3.027a6.661,6.661,0,0,1,6.172-5.661c.814-.054,1.628-.124,2.437-.225.286-.036.472-.022.587.273a3.758,3.758,0,0,0,3.493,2.447,67.549,67.549,0,0,0,12.526.067c.492-.049.986-.077,1.478-.127a3.588,3.588,0,0,0,3.154-2.349c.077-.185.118-.379.4-.337,1.63.245,3.329.1,4.873.822a6.494,6.494,0,0,1,4.016,5.776c.331,4.864.552,9.734.6,14.61.118,1.147.02,2.3.051,3.445q0,3.647,0,7.294A1.827,1.827,0,0,1-1056.691,11.938Z" transform="translate(1106.259 26.883)" fill="#4ffc34"/>
      <path id="Path_4873" data-name="Path 4873" d="M-1036.788-28.943c-1.585,0-3.17,0-4.755,0-.816,0-1.307-.417-1.327-1.089-.021-.69.5-1.137,1.353-1.138q4.717-.007,9.435,0c.888,0,1.39.442,1.384,1.187-.005.665-.513,1.041-1.409,1.042Z" transform="translate(1066.122 34.593)" fill="#21386b"/>
      <path id="Path_4874" data-name="Path 4874" d="M-941.987,81.624l0-8.046c.038-.062.076-.064.112,0a26.848,26.848,0,0,0,.137,2.841,20.768,20.768,0,0,0-.125,3.305A5.991,5.991,0,0,1-941.987,81.624Z" transform="translate(991.554 -42.803)" fill="#59939b"/>
      <path id="Path_4875" data-name="Path 4875" d="M-941.879,64.012h-.056l-.056,0q0-1.712.008-3.423c.176.177.1.407.131.616Q-941.866,62.607-941.879,64.012Z" transform="translate(991.555 -33.235)" fill="#4a8293"/>
      <path id="Path_4876" data-name="Path 4876" d="M-1050.445,64.384c-1.87.554-3.028-.465-3.995-2.267-1.507-2.808-3.247-5.491-4.881-8.231a2.077,2.077,0,0,1,.826-3.244c.83-.491,1.654-.993,2.486-1.481a2.026,2.026,0,0,1,3.042.747c.863,1.385,1.687,2.795,2.531,4.192.1.165.151.437.354.442.266.007.289-.3.382-.487q2.789-5.617,5.569-11.239c.84-1.694,1.782-2.006,3.472-1.164.842.419,1.692.822,2.523,1.261a1.972,1.972,0,0,1,.937,2.814c-2.848,5.768-5.72,11.523-8.552,17.3-.573,1.17-1.583,1.3-2.664,1.351C-1049.01,64.408-1049.605,64.384-1050.445,64.384Z" transform="translate(1078.622 -18.908)" fill="#f0f3f5"/>
    </g>
  </g>
</svg>
