<svg xmlns="http://www.w3.org/2000/svg" width="151.633" height="40" viewBox="0 0 151.633 40">
  <g id="Group_18689" data-name="Group 18689" transform="translate(530.223 -120.18)">
    <g id="Group_18687" data-name="Group 18687" transform="translate(-530.223 120.18)">
      <path id="Path_4837" data-name="Path 4837" d="M-512.86,144.809a11.934,11.934,0,0,0-11.934,11.934,11.934,11.934,0,0,0,11.934,11.934,11.934,11.934,0,0,0,11.934-11.934A11.934,11.934,0,0,0-512.86,144.809Zm0,20.558a8.624,8.624,0,0,1-8.624-8.624,8.624,8.624,0,0,1,8.624-8.624,8.624,8.624,0,0,1,8.624,8.624A8.624,8.624,0,0,1-512.86,165.367Z" transform="translate(524.794 -136.438)" fill="#4ffc34"/>
      <path id="Path_4838" data-name="Path 4838" d="M-493.616,167.57a1.863,1.863,0,0,0-1.185-.724,1.948,1.948,0,0,0,.938-.721,1.905,1.905,0,0,0,.323-1.089,2.05,2.05,0,0,0-.869-1.8,3.258,3.258,0,0,0-1.206-.488v-1.9h-1.048v1.787c-.055,0-.109,0-.165,0h-1.326v-1.783H-499.2v1.783h-1.53v1.061l.935.181v6.3l-.935.181v1.055h1.53V173.2h1.047v-1.791h1.491V173.2h1.048v-1.844a3.2,3.2,0,0,0,1.561-.6,2.272,2.272,0,0,0,.832-1.909A2.157,2.157,0,0,0-493.616,167.57Zm-4.418-3.583h1.207a1.881,1.881,0,0,1,1.143.29,1.054,1.054,0,0,1,.383.9,1,1,0,0,1-.38.844,1.762,1.762,0,0,1-1.086.29h-1.267Zm2.69,5.769a1.636,1.636,0,0,1-1.068.3h-1.623v-2.533h1.755a1.286,1.286,0,0,1,.989.341,1.406,1.406,0,0,1,.313.986A1.1,1.1,0,0,1-495.344,169.756Z" transform="translate(508.909 -147.025)" fill="#4ffc34"/>
      <path id="Path_4839" data-name="Path 4839" d="M-514.619,132.084c2.987-3.578,8.523-7.673,14.725-11.9a109.243,109.243,0,0,0-8.255,10.4Z" transform="translate(518.077 -120.18)" fill="#4ffc34"/>
      <path id="Path_4840" data-name="Path 4840" d="M-491.7,202.842c-2.987,3.578-8.523,7.673-14.725,11.9a109.24,109.24,0,0,0,8.254-10.4Z" transform="translate(512.665 -174.746)" fill="#4ffc34"/>
      <path id="Path_4841" data-name="Path 4841" d="M-491.426,144.852" transform="translate(502.767 -136.466)" fill="#f4cf31"/>
      <path id="Path_4842" data-name="Path 4842" d="M-495.516,144.809q-.305,0-.607.015c-.893,1.173-1.752,2.344-2.4,3.309,0,0,2.936-2.053,4.838-3.184A12.047,12.047,0,0,0-495.516,144.809Z" transform="translate(507.45 -136.438)" fill="#107500"/>
      <path id="Path_4843" data-name="Path 4843" d="M-492.969,208.573c.2,0,.406-.005.607-.015.893-1.173,1.752-2.344,2.4-3.31,0,0-2.936,2.053-4.838,3.184A12,12,0,0,0-492.969,208.573Z" transform="translate(504.997 -176.334)" fill="#107500"/>
    </g>
    <path id="Path_5015" data-name="Path 5015" d="M6-2.051H2.522L1.5,0H-.711L4.607-9.953H6.46L8.354,0H6.31ZM3.343-3.712h2.4L5.182-7.417Zm8.3,2.064h4.225L15.579,0H9.352l1.729-9.953h2Zm7.424,0H23.29L23,0H16.775L18.5-9.953h2ZM35.957-8.292H33L31.568,0h-2L31-8.292H28.082l.294-1.661h7.875ZM42.28-4.313H38.466L38-1.647h4.484L42.2,0H35.711L37.44-9.953h6.474L43.62-8.292H39.156L38.739-5.92h3.828Zm9.249.991a3.722,3.722,0,0,1-.7,1.829A3.828,3.828,0,0,1,49.294-.27a4.663,4.663,0,0,1-2.037.407,3.444,3.444,0,0,1-1.716-.455,3.013,3.013,0,0,1-1.152-1.258,4.648,4.648,0,0,1-.475-1.9,9.3,9.3,0,0,1,.174-2.092,6.631,6.631,0,0,1,.793-2.222,4.957,4.957,0,0,1,1.357-1.538,4.094,4.094,0,0,1,2.529-.766,3.359,3.359,0,0,1,2.451.954,3.836,3.836,0,0,1,.995,2.574l-2-.007a2.092,2.092,0,0,0-.376-1.381,1.533,1.533,0,0,0-1.169-.465,2.029,2.029,0,0,0-1.685.731A4.4,4.4,0,0,0,46.1-5.448a12.386,12.386,0,0,0-.191,2.14,2.13,2.13,0,0,0,.4,1.33,1.35,1.35,0,0,0,1.032.448,2.061,2.061,0,0,0,1.466-.434,2.3,2.3,0,0,0,.728-1.343ZM60.245,0h-2l.738-4.266H55.118L54.373,0h-2L54.1-9.953h2L55.4-5.92h3.869l.7-4.033h2ZM69.9,0H67.963L65.194-6.638,64.039,0h-2l1.729-9.953H65.7L68.476-3.3l1.155-6.651h2Zm5.79.137a3.507,3.507,0,0,1-1.747-.468,3.161,3.161,0,0,1-1.2-1.292,4.784,4.784,0,0,1-.509-1.938,7.79,7.79,0,0,1,.239-2.393,6.385,6.385,0,0,1,1.012-2.235A4.6,4.6,0,0,1,75.13-9.632a4.238,4.238,0,0,1,2.034-.458,3.471,3.471,0,0,1,1.757.475A3.138,3.138,0,0,1,80.1-8.309,4.84,4.84,0,0,1,80.6-6.378a8.04,8.04,0,0,1-.26,2.475,6.28,6.28,0,0,1-1.019,2.2A4.564,4.564,0,0,1,77.7-.308,4.226,4.226,0,0,1,75.694.137ZM78.531-5.25l.055-.649a3.173,3.173,0,0,0-.325-1.846A1.371,1.371,0,0,0,77.068-8.4a2.163,2.163,0,0,0-1.986,1.107,6.523,6.523,0,0,0-.831,3.213,3.292,3.292,0,0,0,.321,1.863,1.368,1.368,0,0,0,1.21.68,2.052,2.052,0,0,0,1.777-.837,5.066,5.066,0,0,0,.923-2.505Zm4.9,3.6h4.225L87.37,0H81.143l1.729-9.953h2Zm8.7,1.784a3.507,3.507,0,0,1-1.747-.468,3.161,3.161,0,0,1-1.2-1.292,4.784,4.784,0,0,1-.509-1.938,7.79,7.79,0,0,1,.239-2.393,6.385,6.385,0,0,1,1.012-2.235,4.6,4.6,0,0,1,1.637-1.442A4.238,4.238,0,0,1,93.6-10.09a3.471,3.471,0,0,1,1.757.475,3.138,3.138,0,0,1,1.183,1.306,4.84,4.84,0,0,1,.492,1.931A8.04,8.04,0,0,1,96.77-3.9a6.28,6.28,0,0,1-1.019,2.2A4.564,4.564,0,0,1,94.134-.308,4.226,4.226,0,0,1,92.128.137ZM94.965-5.25,95.02-5.9a3.173,3.173,0,0,0-.325-1.846A1.371,1.371,0,0,0,93.5-8.4a2.163,2.163,0,0,0-1.986,1.107,6.523,6.523,0,0,0-.831,3.213,3.292,3.292,0,0,0,.321,1.863,1.368,1.368,0,0,0,1.21.68,2.052,2.052,0,0,0,1.777-.837,5.066,5.066,0,0,0,.923-2.505Zm10.589,3.992a3.357,3.357,0,0,1-1.562,1.042,6.583,6.583,0,0,1-2.321.345A3.6,3.6,0,0,1,99.88-.318a3.125,3.125,0,0,1-1.217-1.268,4.487,4.487,0,0,1-.506-1.887,8.611,8.611,0,0,1,.208-2.314,6.508,6.508,0,0,1,.95-2.331,4.441,4.441,0,0,1,1.617-1.5,4.26,4.26,0,0,1,2.092-.475,3.46,3.46,0,0,1,2.44.878,3.644,3.644,0,0,1,1,2.437l-1.928-.007a2.039,2.039,0,0,0-.444-1.23,1.514,1.514,0,0,0-1.1-.424A2.159,2.159,0,0,0,101-7.325a6.913,6.913,0,0,0-.831,3.339,2.936,2.936,0,0,0,.359,1.812,1.487,1.487,0,0,0,1.3.656A2.775,2.775,0,0,0,103.571-2l.335-1.716h-1.818l.267-1.511h3.8Zm5.571-4.225,2.782-4.471h2.3L111.856-3.5l-.6,3.5h-2.037l.649-3.726L107.8-9.946l2.112-.007Z" transform="translate(-494.794 144.68)" fill="#fff"/>
  </g>
</svg>
