<svg xmlns="http://www.w3.org/2000/svg" width="100" height="100" viewBox="0 0 100 100">
  <g id="Group_19284" data-name="Group 19284" transform="translate(-138 -191)">
    <rect id="Rectangle_6329" data-name="Rectangle 6329" width="100" height="100" rx="30" transform="translate(138 191)" fill="#1f2630"/>
    <g id="Group_18687" data-name="Group 18687" transform="translate(170 211)">
      <path id="Path_4837" data-name="Path 4837" d="M-506.893,144.809a17.9,17.9,0,0,0-17.9,17.9,17.9,17.9,0,0,0,17.9,17.9,17.9,17.9,0,0,0,17.9-17.9A17.9,17.9,0,0,0-506.893,144.809Zm0,30.837A12.936,12.936,0,0,1-519.83,162.71a12.936,12.936,0,0,1,12.936-12.936,12.936,12.936,0,0,1,12.936,12.936A12.936,12.936,0,0,1-506.893,175.646Z" transform="translate(524.794 -132.252)" fill="#4ffc34"/>
      <path id="Path_4838" data-name="Path 4838" d="M-490.059,170.931a2.794,2.794,0,0,0-1.778-1.086,2.921,2.921,0,0,0,1.407-1.081,2.857,2.857,0,0,0,.484-1.634,3.075,3.075,0,0,0-1.3-2.7,4.888,4.888,0,0,0-1.809-.732v-2.847h-1.571v2.68c-.083,0-.163-.006-.248-.006h-1.988v-2.674h-1.571v2.674h-2.295v1.592l1.4.272v9.454l-1.4.272v1.583h2.295v2.687h1.571v-2.687h2.236v2.687h1.571v-2.765a4.794,4.794,0,0,0,2.342-.894,3.408,3.408,0,0,0,1.249-2.864A3.235,3.235,0,0,0-490.059,170.931Zm-6.627-5.374h1.81a2.82,2.82,0,0,1,1.714.434,1.58,1.58,0,0,1,.575,1.348,1.5,1.5,0,0,1-.57,1.266,2.642,2.642,0,0,1-1.628.434h-1.9Zm4.035,8.653a2.453,2.453,0,0,1-1.6.457h-2.434v-3.8h2.633a1.93,1.93,0,0,1,1.484.511,2.108,2.108,0,0,1,.47,1.479A1.655,1.655,0,0,1-492.651,174.21Z" transform="translate(512.999 -140.114)" fill="#4ffc34"/>
      <path id="Path_4839" data-name="Path 4839" d="M-514.619,138.036c4.48-5.367,12.784-11.51,22.087-17.856a163.859,163.859,0,0,0-12.382,15.594Z" transform="translate(519.807 -120.18)" fill="#4ffc34"/>
      <path id="Path_4840" data-name="Path 4840" d="M-484.333,202.842c-4.48,5.367-12.784,11.51-22.087,17.856A163.869,163.869,0,0,0-494.038,205.1Z" transform="translate(515.788 -160.698)" fill="#4ffc34"/>
      <path id="Path_4841" data-name="Path 4841" d="M-491.426,144.852" transform="translate(508.438 -132.273)" fill="#f4cf31"/>
      <path id="Path_4842" data-name="Path 4842" d="M-494.015,144.809q-.458,0-.91.023c-1.339,1.759-2.628,3.516-3.6,4.964,0,0,4.4-3.079,7.257-4.777A18.066,18.066,0,0,0-494.015,144.809Z" transform="translate(511.915 -132.252)" fill="#107500"/>
      <path id="Path_4843" data-name="Path 4843" d="M-492.052,210.236c.305,0,.609-.008.91-.023,1.339-1.76,2.628-3.516,3.6-4.965,0,0-4.4,3.08-7.257,4.777A18,18,0,0,0-492.052,210.236Z" transform="translate(510.094 -161.878)" fill="#107500"/>
    </g>
  </g>
</svg>
