<svg xmlns="http://www.w3.org/2000/svg" width="133.501" height="70.095" viewBox="0 0 133.501 70.095">
  <g id="Group_19422" data-name="Group 19422" transform="translate(-169.571 -79.957)">
    <g id="Group_18687" data-name="Group 18687" transform="translate(169.571 79.957)">
      <path id="Path_4837" data-name="Path 4837" d="M-503.881,144.809a20.912,20.912,0,0,0-20.913,20.913,20.912,20.912,0,0,0,20.913,20.913,20.913,20.913,0,0,0,20.913-20.913A20.913,20.913,0,0,0-503.881,144.809Zm0,36.026a15.113,15.113,0,0,1-15.113-15.113,15.113,15.113,0,0,1,15.113-15.113,15.113,15.113,0,0,1,15.113,15.113A15.113,15.113,0,0,1-503.881,180.835Z" transform="translate(524.794 -130.14)" fill="#4ffc34"/>
      <path id="Path_4838" data-name="Path 4838" d="M-488.263,172.628a3.265,3.265,0,0,0-2.077-1.269A3.414,3.414,0,0,0-488.7,170.1a3.339,3.339,0,0,0,.566-1.908,3.593,3.593,0,0,0-1.522-3.16,5.708,5.708,0,0,0-2.113-.855v-3.326H-493.6v3.131c-.1,0-.191-.007-.289-.007h-2.323v-3.124h-1.835v3.124h-2.681v1.86l1.639.317v11.044l-1.639.317v1.849h2.681V182.5h1.835V179.36h2.612V182.5h1.836v-3.231a5.6,5.6,0,0,0,2.736-1.044,3.982,3.982,0,0,0,1.459-3.346A3.78,3.78,0,0,0-488.263,172.628Zm-7.742-6.278h2.114a3.3,3.3,0,0,1,2,.507,1.846,1.846,0,0,1,.671,1.575,1.747,1.747,0,0,1-.666,1.479,3.087,3.087,0,0,1-1.9.507h-2.22Zm4.714,10.109a2.866,2.866,0,0,1-1.871.534h-2.843v-4.439h3.076a2.254,2.254,0,0,1,1.734.6,2.464,2.464,0,0,1,.549,1.728A1.933,1.933,0,0,1-491.291,176.459Z" transform="translate(515.063 -136.625)" fill="#4ffc34"/>
      <path id="Path_4839" data-name="Path 4839" d="M-514.619,141.04c5.234-6.269,14.935-13.447,25.8-20.86A191.434,191.434,0,0,0-503.281,138.4Z" transform="translate(520.679 -120.18)" fill="#4ffc34"/>
      <path id="Path_4840" data-name="Path 4840" d="M-480.617,202.842c-5.234,6.27-14.935,13.447-25.8,20.861a191.433,191.433,0,0,0,14.465-18.217Z" transform="translate(517.364 -153.607)" fill="#4ffc34"/>
      <path id="Path_4841" data-name="Path 4841" d="M-491.426,144.852" transform="translate(511.3 -130.157)" fill="#f4cf31"/>
      <path id="Path_4842" data-name="Path 4842" d="M-493.257,144.809q-.535,0-1.063.027c-1.564,2.055-3.07,4.108-4.2,5.8,0,0,5.145-3.6,8.479-5.58A21.111,21.111,0,0,0-493.257,144.809Z" transform="translate(514.169 -130.14)" fill="#107500"/>
      <path id="Path_4843" data-name="Path 4843" d="M-491.589,211.075c.357,0,.711-.01,1.063-.027,1.564-2.056,3.07-4.108,4.2-5.8,0,0-5.145,3.6-8.479,5.58A21.034,21.034,0,0,0-491.589,211.075Z" transform="translate(512.666 -154.581)" fill="#107500"/>
    </g>
    <path id="Path_5016" data-name="Path 5016" d="M11.88-9.312a4.832,4.832,0,0,1,2.076,1.536,4.209,4.209,0,0,1,.8,2.664q0,2.856-1.632,3.984A6.668,6.668,0,0,1,9.24,0H3.264A1.417,1.417,0,0,1,2.22-.42,1.417,1.417,0,0,1,1.8-1.464V-15.336a1.417,1.417,0,0,1,.42-1.044,1.417,1.417,0,0,1,1.044-.42H9.312q4.56,0,4.56,4.272a3.532,3.532,0,0,1-.516,1.908A3.572,3.572,0,0,1,11.88-9.312ZM10.752-12a2,2,0,0,0-.492-1.476,1.866,1.866,0,0,0-1.38-.492H4.92v3.744H8.952a1.837,1.837,0,0,0,1.26-.48A1.647,1.647,0,0,0,10.752-12ZM9.24-2.76A2.468,2.468,0,0,0,11-3.36a2.294,2.294,0,0,0,.636-1.752A1.967,1.967,0,0,0,10.9-6.96a3.579,3.579,0,0,0-1.824-.432H4.92V-2.76Zm10.752,1.3A1.439,1.439,0,0,1,19.584-.42,1.378,1.378,0,0,1,18.552,0,1.378,1.378,0,0,1,17.52-.42a1.439,1.439,0,0,1-.408-1.044v-9.912a1.439,1.439,0,0,1,.408-1.044,1.378,1.378,0,0,1,1.032-.42,1.378,1.378,0,0,1,1.032.42,1.439,1.439,0,0,1,.408,1.044ZM18.528-14.4a1.907,1.907,0,0,1-1.152-.264,1.128,1.128,0,0,1-.336-.936v-.456a1.088,1.088,0,0,1,.36-.936,1.974,1.974,0,0,1,1.152-.264,1.959,1.959,0,0,1,1.176.264,1.128,1.128,0,0,1,.336.936v.456a1.1,1.1,0,0,1-.348.948A2.1,2.1,0,0,1,18.528-14.4ZM29.136-2.712a.8.8,0,0,1,.612.324,1.269,1.269,0,0,1,.276.852,1.282,1.282,0,0,1-.708,1.092A2.941,2.941,0,0,1,27.72,0a4.653,4.653,0,0,1-2.508-.636q-1.02-.636-1.02-2.7V-9.96h-1.1a1.3,1.3,0,0,1-.96-.384,1.3,1.3,0,0,1-.384-.96,1.234,1.234,0,0,1,.384-.924,1.325,1.325,0,0,1,.96-.372h1.1v-1.536a1.417,1.417,0,0,1,.42-1.044,1.417,1.417,0,0,1,1.044-.42,1.349,1.349,0,0,1,1.008.42,1.439,1.439,0,0,1,.408,1.044V-12.6h1.7a1.3,1.3,0,0,1,.96.384,1.3,1.3,0,0,1,.384.96,1.234,1.234,0,0,1-.384.924,1.325,1.325,0,0,1-.96.372h-1.7v6.5a.918.918,0,0,0,.264.732,1.065,1.065,0,0,0,.72.228,2.059,2.059,0,0,0,.528-.1A1.434,1.434,0,0,1,29.136-2.712ZM36-14.04v4.224h5.184a1.463,1.463,0,0,1,1.044.4,1.339,1.339,0,0,1,.42,1.02,1.27,1.27,0,0,1-.42.936,1.439,1.439,0,0,1-1.044.408H36v5.592A1.379,1.379,0,0,1,35.556-.42,1.47,1.47,0,0,1,34.512,0,1.5,1.5,0,0,1,33.42-.408,1.407,1.407,0,0,1,33-1.464V-15.336a1.417,1.417,0,0,1,.42-1.044,1.417,1.417,0,0,1,1.044-.42h7.8a1.463,1.463,0,0,1,1.044.4,1.339,1.339,0,0,1,.42,1.02,1.27,1.27,0,0,1-.42.936,1.439,1.439,0,0,1-1.044.408ZM48.96-1.464A1.439,1.439,0,0,1,48.552-.42,1.378,1.378,0,0,1,47.52,0a1.378,1.378,0,0,1-1.032-.42,1.439,1.439,0,0,1-.408-1.044v-9.912a1.439,1.439,0,0,1,.408-1.044,1.378,1.378,0,0,1,1.032-.42,1.378,1.378,0,0,1,1.032.42,1.439,1.439,0,0,1,.408,1.044ZM47.5-14.4a1.907,1.907,0,0,1-1.152-.264,1.128,1.128,0,0,1-.336-.936v-.456a1.088,1.088,0,0,1,.36-.936,1.974,1.974,0,0,1,1.152-.264,1.959,1.959,0,0,1,1.176.264,1.128,1.128,0,0,1,.336.936v.456a1.1,1.1,0,0,1-.348.948A2.1,2.1,0,0,1,47.5-14.4Zm11.088,1.32a1.835,1.835,0,0,1,1.212.408,1.216,1.216,0,0,1,.492.96A1.487,1.487,0,0,1,59.9-10.6a1.266,1.266,0,0,1-.912.372,2.4,2.4,0,0,1-.816-.168q-.072-.024-.324-.1a1.958,1.958,0,0,0-.54-.072,2.133,2.133,0,0,0-1.2.384,2.8,2.8,0,0,0-.948,1.164,4.286,4.286,0,0,0-.372,1.86v5.688A1.439,1.439,0,0,1,54.384-.42,1.378,1.378,0,0,1,53.352,0,1.378,1.378,0,0,1,52.32-.42a1.439,1.439,0,0,1-.408-1.044v-9.912a1.439,1.439,0,0,1,.408-1.044,1.378,1.378,0,0,1,1.032-.42,1.378,1.378,0,0,1,1.032.42,1.439,1.439,0,0,1,.408,1.044v.312a3.636,3.636,0,0,1,1.584-1.5A4.87,4.87,0,0,1,58.584-13.08Zm3,11.088a1.166,1.166,0,0,1-.216-.72,1.26,1.26,0,0,1,.624-1.056,1.27,1.27,0,0,1,.7-.216,1.354,1.354,0,0,1,.96.456,5.061,5.061,0,0,0,1.5,1.1,4.472,4.472,0,0,0,1.884.36Q68.9-2.136,68.9-3.48a1.148,1.148,0,0,0-.636-1.056,8.976,8.976,0,0,0-1.98-.72,17.163,17.163,0,0,1-2.268-.768,4.013,4.013,0,0,1-1.512-1.164,3.224,3.224,0,0,1-.636-2.1,3.177,3.177,0,0,1,.66-2,4.344,4.344,0,0,1,1.728-1.32,5.589,5.589,0,0,1,2.268-.468,6.97,6.97,0,0,1,2.448.456A4.258,4.258,0,0,1,70.9-11.28a1.335,1.335,0,0,1,.312.864,1.114,1.114,0,0,1-.456.912,1.209,1.209,0,0,1-.768.264,1.17,1.17,0,0,1-.864-.336A3.048,3.048,0,0,0,68-10.416a3.69,3.69,0,0,0-1.548-.312q-1.824,0-1.824,1.32a1.13,1.13,0,0,0,.336.852,2.3,2.3,0,0,0,.852.5q.516.18,1.452.444a15.87,15.87,0,0,1,2.16.744A3.707,3.707,0,0,1,70.9-5.688,3.369,3.369,0,0,1,71.5-3.6a3.2,3.2,0,0,1-.7,2.052A4.406,4.406,0,0,1,69.012-.216,5.771,5.771,0,0,1,66.768.24a8.128,8.128,0,0,1-2.952-.528A4.906,4.906,0,0,1,61.584-1.992Zm18.5-.72a.8.8,0,0,1,.612.324,1.269,1.269,0,0,1,.276.852,1.282,1.282,0,0,1-.708,1.092,2.941,2.941,0,0,1-1.6.444,4.653,4.653,0,0,1-2.508-.636q-1.02-.636-1.02-2.7V-9.96h-1.1a1.3,1.3,0,0,1-.96-.384,1.3,1.3,0,0,1-.384-.96,1.234,1.234,0,0,1,.384-.924,1.325,1.325,0,0,1,.96-.372h1.1v-1.536a1.417,1.417,0,0,1,.42-1.044,1.417,1.417,0,0,1,1.044-.42,1.349,1.349,0,0,1,1.008.42,1.439,1.439,0,0,1,.408,1.044V-12.6h1.7a1.3,1.3,0,0,1,.96.384,1.3,1.3,0,0,1,.384.96,1.234,1.234,0,0,1-.384.924,1.325,1.325,0,0,1-.96.372h-1.7v6.5a.918.918,0,0,0,.264.732,1.065,1.065,0,0,0,.72.228,2.059,2.059,0,0,0,.528-.1A1.434,1.434,0,0,1,80.088-2.712Z" transform="translate(222 123.213)" fill="#fff"/>
  </g>
</svg>
