<svg xmlns="http://www.w3.org/2000/svg" width="137.186" height="150" viewBox="0 0 137.186 150">
  <g id="Group_18693" data-name="Group 18693" transform="translate(-122 -154)">
    <path id="Path_4845" data-name="Path 4845" d="M-528.563,434.914h8.79c.415.109.825.242,1.246.323,4.53.872,9.187,1.324,13.572,2.667a65.007,65.007,0,0,1,45,75.663c-5.314,25.208-20.955,41.771-45.443,49.845a11.862,11.862,0,0,0-7.125,5.619c-2.469,4.427-5.033,8.8-7.588,13.181-2.1,3.6-6.023,3.605-8.109.007-2.421-4.175-4.9-8.323-7.157-12.585a12.784,12.784,0,0,0-8.188-6.5c-26.574-7.966-45.584-33.06-46.144-60.792a63.464,63.464,0,0,1,8.579-34.025c10.273-17.506,25.385-28.353,45.389-32.216C-533.359,435.641-530.956,435.307-528.563,434.914Zm-1.522,69.9c0,2.2-.043,4.4.011,6.591a5.988,5.988,0,0,0,5.984,5.8,6.03,6.03,0,0,0,5.835-5.95c.016-2.051.085-4.106-.027-6.151-.066-1.207.413-1.694,1.48-2.1a21.215,21.215,0,0,0,13.5-24.246,21.308,21.308,0,0,0-23.147-16.912,21.432,21.432,0,0,0-19.014,20.911,5.883,5.883,0,0,0,4.957,6.123,5.792,5.792,0,0,0,6.8-4.727c.188-.847.121-1.747.252-2.61a9.5,9.5,0,0,1,9.2-7.9,9.425,9.425,0,0,1,9.384,7.843,9.393,9.393,0,0,1-6.343,10.461,18.33,18.33,0,0,1-3.454.563,5.852,5.852,0,0,0-5.412,5.861C-530.113,500.518-530.087,502.667-530.085,504.815Zm12.775,26.479c-.446-1.519-.564-3.066-1.3-4.211-1.912-2.963-9.018-2.911-11.109-.066-1.337,1.818-1.345,6.537-.016,8.375,1.979,2.735,9.162,2.907,11.025.109C-517.932,534.328-517.77,532.743-517.31,531.294Z" transform="translate(717.723 -280.914)" fill="#1f2630"/>
    <path id="Path_4844" data-name="Path 4844" d="M-528.563,434.914h8.79c.415.109.825.242,1.246.323,4.53.872,9.187,1.324,13.572,2.667a65.007,65.007,0,0,1,45,75.663c-5.314,25.208-20.955,41.771-45.443,49.845a11.862,11.862,0,0,0-7.125,5.619c-2.469,4.427-5.033,8.8-7.588,13.181-2.1,3.6-6.023,3.605-8.109.007-2.421-4.175-4.9-8.323-7.157-12.585a12.784,12.784,0,0,0-8.188-6.5c-26.574-7.966-45.584-33.06-46.144-60.792a63.464,63.464,0,0,1,8.579-34.025c10.273-17.506,25.385-28.353,45.389-32.216C-533.359,435.641-530.956,435.307-528.563,434.914Zm-1.522,69.9c0,2.2-.043,4.4.011,6.591a5.988,5.988,0,0,0,5.984,5.8,6.03,6.03,0,0,0,5.835-5.95c.016-2.051.085-4.106-.027-6.151-.066-1.207.413-1.694,1.48-2.1a21.215,21.215,0,0,0,13.5-24.246,21.308,21.308,0,0,0-23.147-16.912,21.432,21.432,0,0,0-19.014,20.911,5.883,5.883,0,0,0,4.957,6.123,5.792,5.792,0,0,0,6.8-4.727c.188-.847.121-1.747.252-2.61a9.5,9.5,0,0,1,9.2-7.9,9.425,9.425,0,0,1,9.384,7.843,9.393,9.393,0,0,1-6.343,10.461,18.33,18.33,0,0,1-3.454.563,5.852,5.852,0,0,0-5.412,5.861C-530.113,500.518-530.087,502.667-530.085,504.815Zm12.775,26.479c-.446-1.519-.564-3.066-1.3-4.211-1.912-2.963-9.018-2.911-11.109-.066-1.337,1.818-1.345,6.537-.016,8.375,1.979,2.735,9.162,2.907,11.025.109C-517.932,534.328-517.77,532.743-517.31,531.294Z" transform="translate(711.723 -280.914)" fill="#4ffc34"/>
  </g>
</svg>
