<svg xmlns="http://www.w3.org/2000/svg" width="250" height="250" viewBox="0 0 250 250">
  <g id="Group_18748" data-name="Group 18748" transform="translate(-290 -473)">
    <rect id="Rectangle_6320" data-name="Rectangle 6320" width="250" height="250" rx="10" transform="translate(290 473)" fill="#fff"/>
    <path id="Icon_metro-qrcode" data-name="Icon metro-qrcode" d="M65.071,14.428h-50v50h50Zm12.5-12.5v75h-75v-75Zm-50,25h25v25h-25Zm162.5-12.5h-50v50h50Zm12.5-12.5v75h-75v-75h75Zm-50,25h25v25h-25Zm-87.5,112.5h-50v50h50Zm12.5-12.5v75h-75v-75Zm-50,25h25v25h-25Zm62.5-150h12.5v12.5h-12.5Zm12.5,12.5h12.5v12.5h-12.5Zm-12.5,12.5h12.5v12.5h-12.5Zm12.5,12.5h12.5v12.5h-12.5Zm-12.5,12.5h12.5v12.5h-12.5Zm12.5,12.5h12.5v12.5h-12.5Zm-12.5,12.5h12.5v12.5h-12.5Zm0,25h12.5v12.5h-12.5Zm12.5,12.5h12.5v12.5h-12.5Zm-12.5,12.5h12.5v12.5h-12.5Zm12.5,12.5h12.5v12.5h-12.5Zm-12.5,12.5h12.5v12.5h-12.5Zm12.5,12.5h12.5v12.5h-12.5Zm-12.5,12.5h12.5v12.5h-12.5Zm12.5,12.5h12.5v12.5h-12.5Zm87.5-87.5h12.5v12.5h-12.5Zm-175,0h12.5v12.5h-12.5Zm12.5-12.5h12.5v12.5h-12.5Zm-25,0h12.5v12.5H2.571Zm50,0h12.5v12.5h-12.5Zm12.5,12.5h12.5v12.5h-12.5Zm12.5-12.5h12.5v12.5h-12.5Zm37.5,12.5h12.5v12.5h-12.5Zm12.5-12.5h12.5v12.5h-12.5Zm12.5,12.5h12.5v12.5h-12.5Zm12.5-12.5h12.5v12.5h-12.5Zm12.5,12.5h12.5v12.5h-12.5Zm12.5-12.5h12.5v12.5h-12.5Zm12.5,37.5h12.5v12.5h-12.5Zm-75,0h12.5v12.5h-12.5Zm12.5-12.5h12.5v12.5h-12.5Zm12.5,12.5h12.5v12.5h-12.5Zm25,0h12.5v12.5h-12.5Zm12.5-12.5h12.5v12.5h-12.5Zm12.5,37.5h12.5v12.5h-12.5Zm-75,0h12.5v12.5h-12.5Zm12.5-12.5h12.5v12.5h-12.5Zm25,0h12.5v12.5h-12.5Zm12.5,12.5h12.5v12.5h-12.5Zm12.5-12.5h12.5v12.5h-12.5Zm12.5,37.5h12.5v12.5h-12.5Zm-62.5-12.5h12.5v12.5h-12.5Zm12.5,12.5h12.5v12.5h-12.5Zm12.5-12.5h12.5v12.5h-12.5Zm12.5,12.5h12.5v12.5h-12.5Zm-37.5,12.5h12.5v12.5h-12.5Zm25,0h12.5v12.5h-12.5Zm25,0h12.5v12.5h-12.5Z" transform="translate(312.429 496.072)"/>
  </g>
</svg>
