<svg id="Group_18687" data-name="Group 18687" xmlns="http://www.w3.org/2000/svg" width="18" height="30.167" viewBox="0 0 18 30.167">
  <path id="Path_4837" data-name="Path 4837" d="M-515.794,144.809a9,9,0,0,0-9,9,9,9,0,0,0,9,9,9,9,0,0,0,9-9A9,9,0,0,0-515.794,144.809Zm0,15.5a6.5,6.5,0,0,1-6.5-6.5,6.5,6.5,0,0,1,6.5-6.5,6.5,6.5,0,0,1,6.5,6.5A6.5,6.5,0,0,1-515.794,160.313Z" transform="translate(524.794 -138.496)" fill="#4ffc34"/>
  <path id="Path_4838" data-name="Path 4838" d="M-495.365,165.917a1.4,1.4,0,0,0-.894-.546,1.468,1.468,0,0,0,.707-.543,1.437,1.437,0,0,0,.244-.821,1.546,1.546,0,0,0-.655-1.36,2.458,2.458,0,0,0-.909-.368v-1.432h-.79v1.348c-.042,0-.082,0-.125,0h-1v-1.344h-.79v1.344h-1.154v.8l.705.137v4.753l-.705.137v.8h1.154v1.351h.79v-1.351h1.124v1.351h.79v-1.39a2.41,2.41,0,0,0,1.178-.449,1.714,1.714,0,0,0,.628-1.44A1.626,1.626,0,0,0-495.365,165.917Zm-3.332-2.7h.91a1.418,1.418,0,0,1,.862.218.8.8,0,0,1,.289.678.752.752,0,0,1-.287.637,1.329,1.329,0,0,1-.819.218h-.955Zm2.029,4.351a1.234,1.234,0,0,1-.805.23H-498.7v-1.91h1.324a.97.97,0,0,1,.746.257,1.06,1.06,0,0,1,.236.744A.832.832,0,0,1-496.668,167.566Z" transform="translate(506.898 -150.423)" fill="#4ffc34"/>
  <path id="Path_4839" data-name="Path 4839" d="M-514.619,129.157c2.253-2.7,6.428-5.787,11.1-8.977a82.392,82.392,0,0,0-6.225,7.84Z" transform="translate(517.227 -120.18)" fill="#4ffc34"/>
  <path id="Path_4840" data-name="Path 4840" d="M-495.315,202.842c-2.253,2.7-6.428,5.787-11.1,8.978a82.388,82.388,0,0,0,6.225-7.84Z" transform="translate(511.13 -181.653)" fill="#4ffc34"/>
  <path id="Path_4841" data-name="Path 4841" d="M-491.426,144.852" transform="translate(499.979 -138.528)" fill="#f4cf31"/>
  <path id="Path_4842" data-name="Path 4842" d="M-496.255,144.809q-.23,0-.458.012c-.673.885-1.321,1.768-1.808,2.5,0,0,2.214-1.548,3.649-2.4A9.084,9.084,0,0,0-496.255,144.809Z" transform="translate(505.255 -138.496)" fill="#107500"/>
  <path id="Path_4843" data-name="Path 4843" d="M-493.42,207.756c.154,0,.306,0,.458-.012.673-.885,1.321-1.768,1.808-2.5,0,0-2.214,1.549-3.649,2.4A9.053,9.053,0,0,0-493.42,207.756Z" transform="translate(502.491 -183.442)" fill="#107500"/>
</svg>
