<svg xmlns="http://www.w3.org/2000/svg" width="155.4" height="150" viewBox="0 0 155.4 150">
  <g id="Group_18694" data-name="Group 18694" transform="translate(931.261 -1181.97)">
    <path id="Path_4846" data-name="Path 4846" d="M-775.861,1255.152v3.941c-.233,5.132-3.779,8.136-7.219,11.193-2.261,2.009-4.886,3.568-7.056,5.7a2.962,2.962,0,0,0-.946,2.832,64.925,64.925,0,0,0,1.976,7.612,35.227,35.227,0,0,1,1.411,7.412c.357,6.849-3.07,12.187-9.85,14.123a39.3,39.3,0,0,1-9.422,1.2,47.5,47.5,0,0,0-6.039.311,3.434,3.434,0,0,0-2.82,1.941c-1.517,2.989-2.3,6.251-3.64,9.3a26.848,26.848,0,0,1-3.954,6.765c-4.009,4.715-9.946,5.5-15.454,3.338a38.167,38.167,0,0,1-8.191-4.83,35.786,35.786,0,0,0-4.936-2.94,3.244,3.244,0,0,0-3.025.037c-2.792,1.254-5.105,3.246-7.67,4.846a33.938,33.938,0,0,1-5.041,2.745c-7.475,3.066-14.264.63-18.083-6.5a57.435,57.435,0,0,1-3.633-8.808c-.472-1.394-1.122-2.7-1.711-4.038a3.1,3.1,0,0,0-2.561-1.835,45.876,45.876,0,0,0-6.49-.338c-3.724-.184-7.46-.358-10.975-1.826-5.94-2.48-8.626-8.037-7.983-14.19.417-3.992,1.728-7.764,2.752-11.609,1.164-4.369,1.1-4.435-2.4-7.3-2.769-2.265-5.635-4.391-8.229-6.893-3.528-3.4-4.444-7.465-4.16-12.117a13.041,13.041,0,0,1,3.979-8.393c2.653-2.813,5.81-4.994,8.791-7.4.117-.094.244-.178.368-.266a4.617,4.617,0,0,0,1.984-5.6,90.759,90.759,0,0,1-2.679-10.086,20.785,20.785,0,0,1-.3-6.749c.908-5.691,4.3-9.049,9.6-10.714a35.809,35.809,0,0,1,9.416-1.226,52.944,52.944,0,0,0,6.039-.3,3.493,3.493,0,0,0,2.935-2.011c1.494-3,2.277-6.26,3.629-9.3a24.048,24.048,0,0,1,4.5-7.295c3.8-3.913,8.32-4.646,13.354-3.244,4.019,1.12,7.236,3.714,10.665,5.928,5.743,3.706,5.179,3.6,10.6.234,3-1.859,5.771-4.061,9.042-5.478,5.3-2.3,11.495-1.76,15.553,2.823a26.5,26.5,0,0,1,4.256,7.1c1.323,3,2.123,6.2,3.571,9.164a3.589,3.589,0,0,0,3.043,2.091c2.062.318,4.13.184,6.191.3,3.67.2,7.34.4,10.832,1.787,6.031,2.4,8.708,8.243,8.071,14.28-.46,4.354-2.041,8.416-3.023,12.632a1.05,1.05,0,0,1-.042.145c-.942,2.439.107,4.133,2,5.581,1.924,1.469,3.878,2.9,5.749,4.438a45.778,45.778,0,0,1,4.535,4.453A11.368,11.368,0,0,1-775.861,1255.152Z" fill="#4ffc34"/>
    <path id="Path_4847" data-name="Path 4847" d="M-815.171,1333.356a6.072,6.072,0,0,1,3.817-5.547,6.136,6.136,0,0,1,7.145,1.275c3.087,2.984,6.078,6.066,9.135,9.081.855.844,1.607,2.343,2.63,2.3.864-.034,1.687-1.441,2.507-2.261q12.487-12.48,24.972-24.963c2.61-2.6,6.093-2.926,8.769-.869a6.419,6.419,0,0,1,.924,9.391c-1.172,1.32-2.469,2.529-3.719,3.779q-14.088,14.094-28.182,28.182c-3.59,3.588-7.07,3.59-10.645.016q-7.556-7.553-15.113-15.1A6.991,6.991,0,0,1-815.171,1333.356Z" transform="translate(-69.056 -76.774)" fill="#fefefe"/>
  </g>
</svg>
