<svg xmlns="http://www.w3.org/2000/svg" width="150" height="150" viewBox="0 0 150 150">
  <g id="Group_19421" data-name="Group 19421" transform="translate(-112 -23)">
    <circle id="Ellipse_3323" data-name="Ellipse 3323" cx="75" cy="75" r="75" transform="translate(112 23)" fill="#86daf1"/>
    <g id="Group_19419" data-name="Group 19419" transform="translate(122.659 23.001)">
      <path id="Path_4923" data-name="Path 4923" d="M119.146,354.412l.05-.114.034-.084.031-.085c.069.517.938.687.947.688a1.082,1.082,0,0,0,.8-.536,2.218,2.218,0,0,0,.288-.564c.107-.318-.262-.85-.637-.789-.22.089-.316.257-.414.534.131.039.131.039.159.123a.264.264,0,0,1,0,.075,1.27,1.27,0,0,0,.083.552c-.216-.234-.205-.584-.421-.816,0,0-.163-.137-.163.185,0,.231.077.453.066.684,0,.062-.051.15-.1.108a1.565,1.565,0,0,1-.117-.553c-.051-.409-.081-.552-.158-.581s-.224.388-.385.877l.049-.008v.009h0l0-.009-.058.037.009-.029C119.169,354.153,119.169,354.153,119.146,354.412Z" transform="translate(-55.48 -259.827)" fill="#03aa6f"/>
      <path id="Path_4924" data-name="Path 4924" d="M124.13,308.895l-.01,0h-.011a1.247,1.247,0,0,0-1.143.613.373.373,0,0,0-.065.234,3.543,3.543,0,0,0,.2.722c.071.188.257.627.467.651.066,0,.241-.015.512-1.035.127-.476.213-1.032.074-1.166A.1.1,0,0,0,124.13,308.895Z" transform="translate(-56.27 -250.554)" fill="#03aa6f"/>
      <path id="Path_4925" data-name="Path 4925" d="M109.375,306.48l-.018,0a.224.224,0,0,0-.154.045c-.015.012-.1.067-.384.047a6.478,6.478,0,0,0-1.5-.194c-.343.05-.538.352-.505.484.073.289,1,.343,1.071.338h0l.006,0,0-.009,0,0c.225-.029.441.066.665.059.1-.069.246-.017.594.2.31.2.478.3.6.235.2-.159-.025-.5-.2-.773-.213-.326-.224-.35-.193-.426Z" transform="translate(-52.882 -250.024)" fill="#03aa6f"/>
      <path id="Path_4926" data-name="Path 4926" d="M112.6,352.664a.739.739,0,0,1-.088.04c-.148.594.242.44.653.279-.112.055-.32.159-.073.229a.326.326,0,0,0,.191.01,2.3,2.3,0,0,0-.246.339c.444.215.744-.139,1-.55a.544.544,0,0,0-.32-.058c.563-.559.563-.559.713-.639-.047.041-.047.041-.062.077a3.243,3.243,0,0,0,1.051-.492,4.537,4.537,0,0,0-.353.847h0l-.033.081c-.036.145.073.286.009.43a1.468,1.468,0,0,1-.462.594c-.423.274-.906-.043-1.339.131.04.325.1.818.527.881l-.052.026c-.035.8.077,1.577,1.25.482a3.616,3.616,0,0,1,.329-.3c.169-.122.169-.122.765-.028.84.135.682-1.007,1.207-1.342h0c-.169-.2-.32-.2-.52-.017.063-.107.037-.153-.1-.182.408-.472.418-1.062.225-1.01-.095.026-.283.263-.384.39-.206.262-.227.264-.266.269l-.006.032c.013.148.021.159.049.208.043,0,.058,0,.121-.147-.051.183-.186.667-.339.42a.539.539,0,0,1-.046-.1c.047.159.171.583-.2.351a2.176,2.176,0,0,1-.549-.578c.017-.039.041-.1.058-.134l-.008-.167c.283.117.5-.793.36-1.209-.043-.125-.093-.1-.13-.078.06-1.039-.167-1-.512-.946-.894.5-1.574,1.281-2.415,1.85a.1.1,0,0,0,.02.006.153.153,0,0,1-.022.052Z" transform="translate(-54.077 -259.376)" fill="#03aa6f"/>
      <path id="Path_4927" data-name="Path 4927" d="M120.086,352.528h0Z" transform="translate(-55.678 -259.744)" fill="#03aa6f"/>
      <path id="Path_4928" data-name="Path 4928" d="M110.062,306.511h0Z" transform="translate(-53.567 -250.056)" fill="#03aa6f"/>
      <path id="Path_4929" data-name="Path 4929" d="M120.6,351.027a.479.479,0,0,0,.387.224.947.947,0,0,0,.471-.249.163.163,0,0,0,.009-.048,7.033,7.033,0,0,1,.326-.842c.017-.034.043-.077.062-.111-.193-.456-.362-.8-.623-.762-.358.114-.549.707-.541.748h0C120.5,350.2,120.6,351.021,120.6,351.027Z" transform="translate(-55.78 -259.05)" fill="#03aa6f"/>
      <path id="Path_4930" data-name="Path 4930" d="M124.535,310.753c-.018.044,0,.079.059.242.062-.253.124-.506.186-.76A4.2,4.2,0,0,0,124.535,310.753Z" transform="translate(-56.613 -250.84)" fill="#03aa6f"/>
      <path id="Path_4931" data-name="Path 4931" d="M78.9,340.3h0c.006,0,.008-.013.014-.017h0A.019.019,0,0,0,78.9,340.3Z" transform="translate(-47.007 -257.165)" fill="#03aa6f"/>
      <path id="Path_4932" data-name="Path 4932" d="M119.971,352.31l.017,0-.013-.009a1.417,1.417,0,0,1-.1-.321c-.112-.414-.139-.513-.186-.5a1.331,1.331,0,0,0-.006.837.032.032,0,0,0-.017,0c-.006.009-.01.016.027.069h0l.006-.009v.009C119.8,352.353,119.883,352.329,119.971,352.31Z" transform="translate(-55.579 -259.522)" fill="#03aa6f"/>
      <path id="Path_4933" data-name="Path 4933" d="M124.445,311.551c.371.058.422.478.478.922.066.532.131.864.48.976a.944.944,0,0,0,.334.024c.088-.325.234-.868.356-.69l.012.02a.881.881,0,0,0-.238-.354.883.883,0,0,1,.309.193,1.308,1.308,0,0,0,.011-.5l-.022-.006a.088.088,0,0,0-.009.043,1,1,0,0,1-.69.194c.314-.058.481-.594.481-.6s-.22-1.769-.6-2.026c-.292-.2-.584.373-.587.379-.062.254-.125.507-.186.76C124.647,311.086,124.619,311.224,124.445,311.551Z" transform="translate(-56.595 -250.727)" fill="#03aa6f"/>
      <path id="Path_4934" data-name="Path 4934" d="M117.219,353.742v0Z" transform="translate(-55.074 -259.999)" fill="#03aa6f"/>
      <path id="Path_4935" data-name="Path 4935" d="M117.491,351.72l-.016.028.032.014.006.011,0-.011c.2.062.4-.2.606-.472.242-.317.309-.366.435-.422a.324.324,0,0,0-.178-.253c.134-.124.241-.274.379-.393.054-.045.082-.061.092-.013l0-.058c-.039-.192-.1-.253-.268-.249a1.631,1.631,0,0,0-.767.471c.032.229.07.317.163.385C117.735,350.957,117.372,351.384,117.491,351.72Z" transform="translate(-55.126 -259.191)" fill="#03aa6f"/>
      <path id="Path_4936" data-name="Path 4936" d="M53.239,298.589c.3.037.483,0,1.6-.433,2.149-.83,2.462-.659,1.342.732.266.239.517.463,1.314.13a31.391,31.391,0,0,0,2.906-1.9c1.382-.763,2.935-.064,4.356-.5a1.547,1.547,0,0,0,.955-.681,1.722,1.722,0,0,0,.177-.417,3.655,3.655,0,0,1-1.373.159l-.006,0a13.6,13.6,0,0,1-3.169.339c-5.26.3-7.111.831-7.738,1.228a1.448,1.448,0,0,1,.9.219C54.244,298.016,53.4,297.917,53.239,298.589Z" transform="translate(-41.604 -247.742)" fill="#03aa6f"/>
      <path id="Path_4937" data-name="Path 4937" d="M51.372,310.955c-.028.023-.052.072-.013.17l0,.011c.042-.019.141-.064.156-.136S51.422,310.914,51.372,310.955Z" transform="translate(-41.204 -250.986)" fill="#03aa6f"/>
      <path id="Path_4938" data-name="Path 4938" d="M50.485,310.432l.074.036a.2.2,0,0,1,.027.012l-.015-.051a.894.894,0,0,0-.184-.37c.017-.026.039-.06.057-.084C50.094,310.085,50.108,310.24,50.485,310.432Z" transform="translate(-40.963 -250.785)" fill="#03aa6f"/>
      <path id="Path_4939" data-name="Path 4939" d="M51.847,311.045c-.015.06-.013.115.006.127s.084-.062.127-.153L51.969,311C51.9,310.871,51.854,311.014,51.847,311.045Z" transform="translate(-41.309 -250.989)" fill="#03aa6f"/>
      <path id="Path_4940" data-name="Path 4940" d="M53.653,311.669c-.058.007-.194.024-.2.137,0,.026.008.06.07.081a.453.453,0,0,0,.467-.141l0-.008C53.935,311.673,53.756,311.655,53.653,311.669Z" transform="translate(-41.649 -251.141)" fill="#03aa6f"/>
      <path id="Path_4941" data-name="Path 4941" d="M47.639,282.672l0,0a.426.426,0,0,0,.082-.036A.473.473,0,0,0,47.639,282.672Z" transform="translate(-40.425 -245.03)" fill="#03aa6f"/>
      <path id="Path_4942" data-name="Path 4942" d="M129.6,357.734h0l0,.009Z" transform="translate(-57.681 -260.84)" fill="#03aa6f"/>
      <path id="Path_4943" data-name="Path 4943" d="M45.446,295.958a8.449,8.449,0,0,0-.248,4.484c.369-.327.434-.935,1-1.08l-.017.012c-.173.216-.181.445.288.978l-.014.021a.944.944,0,0,0,.132.918,2.727,2.727,0,0,1,.321.789c0-1.422,0-1.422-.1-1.588l-.11-.013-.123-.174-.035-.023a1.819,1.819,0,0,0,.03-.976l.2-.034c-.391-.865.881-2.115,2.989-4.183l-.327.092c-.6-.088-1.093-.506-1.706-.559-.182-.015-.372.227-.482.373a4.181,4.181,0,0,0,.152-1.219l-.218-.155a2.705,2.705,0,0,0-1.821,1.818c.017.083.022.085.028.088a1.42,1.42,0,0,0-.46.268c-.107-.051-.107-.051-.31-.018.315-.279.555-.631.857-.922-2.469,1.678-3.242-.656-3.045-1.5.091-.392.623-.652.352-1.152-.1-.191-.395-.495-1.187-.392,1.792-2.339,2.117-6.259,2.164-7.021.015-.467-.047-.573-.44-.272-.317.242-.377.262-.5.245.038.21.024.227-.049.279-.227.157-.489.249-.724.392a5.924,5.924,0,0,0-1.084.83c-.224.235-.479.692-.212.913.237.2,1.072.192,2.023-.7a3.549,3.549,0,0,0,.423-.5c-.069.751-1.575,4.615-2.28,5.185a7.012,7.012,0,0,0,.264-1.7,4.8,4.8,0,0,1,.567-2.1,7.279,7.279,0,0,1-1.441,1.708c0,.3.177.586.114.9a2.35,2.35,0,0,1-.435.705c.074.083.175.2.348.375l.051.054.159.164c-.033.067-.033.067-.351.244a1.052,1.052,0,0,0-.486,1.071v.006a1.268,1.268,0,0,0,.306.852,4.719,4.719,0,0,0-.366.754l-.007.017-.007.017-.007.017-.007.018-.007.017-.008.018-.006.017-.008.017a8.368,8.368,0,0,1-.338.776c.378.006.33.338.15.574a.523.523,0,0,0-.069-.232c-.467.312-.467.312-.017.872-.028.12-.037.16-.246.394a1.247,1.247,0,0,1,.32.032l-.016.173c-.223.143-.528.055-.73.26-.181.182-.171.217-.073.552.67.351,1.75-.26,1.83-.327a.487.487,0,0,0-.192-.039C44.424,296.786,44.424,296.786,45.446,295.958Z" transform="translate(-38.502 -245.389)" fill="#03aa6f"/>
      <path id="Path_4944" data-name="Path 4944" d="M52.861,311.6a.153.153,0,0,0,.1-.01v-.023c.016-.073-.056-.131-.239-.194C52.745,311.511,52.807,311.579,52.861,311.6Z" transform="translate(-41.498 -251.079)" fill="#03aa6f"/>
      <path id="Path_4945" data-name="Path 4945" d="M49.226,307.9a.713.713,0,0,0,.39.818l.029.01a.494.494,0,0,0,.054-.141.671.671,0,0,0-.108-.495c.015.009.028.024.047.025C49.618,308.085,49.6,308.049,49.226,307.9Z" transform="translate(-40.758 -250.349)" fill="#03aa6f"/>
      <path id="Path_4946" data-name="Path 4946" d="M126.537,381.809a2,2,0,0,1,.355-.939,4.183,4.183,0,0,0-.833.669,1.88,1.88,0,0,1,.442-.858l-.407.149-.2-.382c.05-.131.114-.3.164-.435a1.761,1.761,0,0,0-.933-.1l0-.141c-.406.149-.766.392-1.16.565,0-.133.01-.312.015-.445a3.251,3.251,0,0,0-.892.559c-.5-1.187.831-2.728.844-2.743l-.418.07c.186-.239.186-.239.134-2.292a4.714,4.714,0,0,0-1.074.16c-.017-.141-.041-.328-.058-.467-.137-.04-.318-.093-.455-.131l-.333.064h0a3.829,3.829,0,0,0,.688-.664,4.56,4.56,0,0,0-2.184-.168c-.139-.253-.139-.253-1.479-.969.381-.549.116-1.18.219-1.768.087-.175.086-.175.086-.174h0l0,0h0v0h0a2.083,2.083,0,0,1-.754-.567l-.418-.029a10.052,10.052,0,0,0-.669-2.016c.015.153.015.153-2.624,3.5-.043-.152-.1-.353-.144-.505a2.573,2.573,0,0,0-.952-.122c-.561-2.167-.078-2.789.212-3.161-1.481.156-2.657-.986-4.105-.969h-.009c-.517.261-.517.261-2.391,2.612l.459.07c.1.859.111.912-1.222,2.565a2.755,2.755,0,0,1,.152,3.219,2.5,2.5,0,0,1-.291.378c-.793.891-2.113.943-2.908,1.828-1.063,1.183-1.486,2.742-2.36,4.036-.529-.359-1.184-.133-1.738-.372-.27-1.077.185-1.49.278-1.562a1.437,1.437,0,0,0,.859-.032l-.167-.389-.463-.051c.028-2.724.028-2.724-.094-2.84l-5.973-2.942c.981-.982-.04-2.53.992-3.5,2.791-2.612,6.718-3.505,9.422-6.246.915-.928.9-1.189.88-1.712a3.636,3.636,0,0,1,1.249.426c.2-1.366,2.882-2.018,1.772-3.5a1.51,1.51,0,0,0,.754-1.276l-.386-.3c.251-.156.577-.381.813-.559-.107-.093-.251-.221-.358-.316.133.026.31.061.444.085.142-.21.323-.5.451-.72l.442.008c.969,1.333.969,1.333,1.152,1.347l-.058.113c-.115.1-.269.232-.384.331.141.04.328.092.468.13l.181-.065,0,0,.093.077-.006-.017,0-.008-.029-.058c.126.021.293.049.418.072.928,1.415-.49,2.8-.047,4.213-.463,0-1.326,0-2.539,1.714.038.138.087.321.123.457a11.018,11.018,0,0,1,3.147.29c.479,1.529,1.456,2.018,2.9,1.448.186-.705.234-1.052-.57-1.9,3.268.323,1.731-1.716,1.181-2.349-.976-1.123-.976-1.123-1.06-1.571.634-.095.634-.095,1.868.477a3.68,3.68,0,0,0,1.1-2.061c-.035-.156-.212-.306-.3-.438a2.093,2.093,0,0,1-.3-.186l-.013-.023v.009l-.016-.032-.008,0,0,0-.024-.037.016.042,0,.008,0,.007.02.029,0,.013,0,0c0,.008.008.017.012.024.045.2.046.2.047.2a2.636,2.636,0,0,0-2.818-1.224c-.014-.279-.033-.654-.048-.934l.393-.159a1.63,1.63,0,0,0-.489-.694c.009-.135.019-.314.028-.448l-.375.22a3.64,3.64,0,0,1-.2-.823c-1.264-.4-1.264-.4-1.633-.539l0-.009c-.433-.227-.565-.294-1.464-1.31a1.527,1.527,0,0,1,.111-.6l-.073-.182.018.034-.018-.043.012.024c-.085-.212-.2-.494-.309-.7l.039.126-.384.174c-.1.274-.243.635-.369.9.054.123.127.287.182.412l.444.11c-.054.256-.137.591-.207.842l-.493.091a7.937,7.937,0,0,1-.65-1.551c-.411.2-.411.2-1.629,1.993-.1-.828.449-1.508.546-2.293-.28.081-3.473,2.034-1.513,3.981-.275-.011-.641-.021-.917-.024a4.025,4.025,0,0,0,1.929,1.608c-1.067,1.055-1.306,2.621-2.3,3.722-.109-.846.077-1.692.016-2.537l-.425.015c-.193.273-.445.643-.628.926-.024-.339-.071-.789-.118-1.124.129-.015.3-.033.433-.049-.036-.123-.083-.289-.118-.411l-.511-.092c.374-1.805.374-1.805,2.447-5.93-.452-.489-.691-.511-1-.378-.039.05-3.757,5.273-2.607,6.646-.2.169-.2.169-2.162,3.036a1.45,1.45,0,0,1,.531-1.266l-6.108-1.568a1.328,1.328,0,0,0,.769.395c-.308.041-.72.077-1.03.09a5.553,5.553,0,0,0-.264.893,2.772,2.772,0,0,1-.361-1.228,3.282,3.282,0,0,1-2.65-.7,1.163,1.163,0,0,0,1.03-.909c-.558-.952-2.9-2.211-2.919-2.221a2.5,2.5,0,0,1,.7-.654l-.434-.128a5.2,5.2,0,0,1-.825.373c.09-.307.237-.71.36-1a7.185,7.185,0,0,0-1.127.262c.049-.129.115-.3.164-.428-.816-.493-1.911-.159-2.646-.893-.208-.208-.507-.463-.7-.686a9.745,9.745,0,0,1-2.676-5.633c-.783-3.675-4.918-3.28-6.808-5.61-.5.582-.5.582-1.629.988a4.8,4.8,0,0,0,.347.762,11.5,11.5,0,0,0-1.245-.414c-.069-.107-.16-.248-.229-.356.478-.47.478-.47-1.877-3.058a3.5,3.5,0,0,0-.264,2.674c-7.512-5.906-7.512-5.906-8.124-4.909a3.208,3.208,0,0,0,.792,1.155c-.01,0-1.12-.546-2.371-1.293.408,1.2.338,2.5.823,3.678-1.989-1.075-2.709-2.361-6.171-8.539,1.1,2.135,1.1,2.135.64,2.624.141,0,.329.011.471.014,2.469,4.94,2.469,4.94,8.323,10.278a4.411,4.411,0,0,0-.988-.08c.389,1.824,2.379,2.044,3.321,3.313l-.046-.075.065.078c1.971,1.288-.547,3.657,1.206,5-1.593.743-1.46,1.4-1.38,1.793.288.069.675.148.968.189l-.239.352a7.086,7.086,0,0,0,.924.039c-.036.134-.084.31-.122.444-.837.076-1.675-.093-2.511.024l.218.381a4.926,4.926,0,0,0,1.51.138,2.185,2.185,0,0,1-1.524.788l-.227-.259c-.055-.09-.058-.088-.06-.087-.742-.954-.933-.946-1.622-.759.409.268.782.59,1.209.831a1.679,1.679,0,0,1-.754.437c.077.12.179.279.256.4.126.023.292.054.417.075-.656-.058-.656-.058-1.465.6a2.554,2.554,0,0,0-1.4-.169c0,.129,0,.3,0,.433l-.516-.123a1.635,1.635,0,0,0-.457.771l-.417.185c.035.131.083.3.118.434a3.2,3.2,0,0,0-.823-.242l.148.393c-.271.089-.638.192-.917.253l.146.407a10.514,10.514,0,0,1-.7-1.09,9.147,9.147,0,0,1-1.049.084,3.315,3.315,0,0,1,.114.834c-.13.014-.306.031-.437.043a7.572,7.572,0,0,0,.114,2.245,2.166,2.166,0,0,0-2.816-.31c0,.182,0,.425,0,.607l-.028-.042a3.606,3.606,0,0,0-2.7-1.5c-2.5-.462-5.052-.038-7.56-.4a4.841,4.841,0,0,1,.426.925c-2.173-1.186-2.044,2.4-1.669,3.527.08,1.448-1.108,2.344-1.553,3.563-.279-.039-.354-.051-.814-.835-.146,1.038.981,1.723.771,2.779l-.276.158a.882.882,0,0,0,.05.379c.587.939.892,2.019,1.492,2.953.066-.061.154-.139.22-.2-.037-.311-.037-.311-.133-.821-.034-.182-.08-.426-.1-.611-.059-.559.518-.918.465-1.476-.065-.692-.677-1.148-.777-1.824a6.554,6.554,0,0,1,1.371-.2,4.357,4.357,0,0,1,.783,1.978c-.247.234-.6.22-.879.389,0,.076,0,.178.006.253l.231.076L47,378.8l-.281.07c.294,1.028,3.913,4.607,4.636,5.316A75.218,75.218,0,0,0,66.976,395.8l.031.015a5.08,5.08,0,0,1,.48.209h0v0h0v0a12.611,12.611,0,0,0,2.549,1.035c-.534-.518-.695-.674-4.7-2.556-3.077-1.447-9.2-5.657-9.111-6.7,8.449.152,14.132,6.1,14.371,6.351a1.656,1.656,0,0,1,.151-.5,3.788,3.788,0,0,0-.86-.594c.32-.029.377-.034,1.462.606,1.451.856,6.455,3.1,6.489,3.111s.027.011.028.011c.371.2.371.2,1.54,1.674a1.524,1.524,0,0,1-.486.084c1.614,1.626,1.614,1.626,2.226,1.858l-.1-.26c.4-.135.831-.183,1.239-.306.321-.648-.148-1.682.822-2,1.588-.525,4.759-.252,5.693-.155l.072.007c2.694.281,2.933.182,3.826-.186l-.324-.3a4.882,4.882,0,0,0,1.49.024,2.745,2.745,0,0,0-.878-.425,6.608,6.608,0,0,1,1.307.159,2.3,2.3,0,0,0-.7-.912l.4-.152c.006-.145.013-.339.019-.484l.416-.151c.027.152.064.356.091.508,1.452.916,2.048-1.006,2.073-1.089.1.005.1.005,4.306-1.363-.258.024-.6.052-.861.071a51.114,51.114,0,0,1,5.1-1.1c.7-4.313,5.737-2.343,8.307-4.117l.415.14c-2.049.954-2.049.954-2.479,1.405.118.07.118.07,7.819-3.423a7.288,7.288,0,0,1-.172-1.01c-.35-.049-.351-.047-.351-.047h0c-1.059.508-1.437,1.884-2.7,2.132-1.067.209-1.446-.978-2.329-1.146.207-.185.474-.441.669-.639-.059-.131-.139-.306-.2-.437a3.7,3.7,0,0,0-1.379.133c2.343-.807,2.343-.807,2.586-1.223a1.557,1.557,0,0,0-1.366-.341,43.336,43.336,0,0,0,9-5.517,38.27,38.27,0,0,1-2.517,4.518c.124.045.288.1.412.146.009.151.021.349.028.5a4.8,4.8,0,0,0,2.86-.722l.389.215c.136-.084.318-.193.455-.276-.287.227-.66.54-.925.792.078.1.182.231.261.33a3.451,3.451,0,0,0,1.711-1.635c-.033.3-.1.707-.164,1,.426-.47,1.079-.437,1.59-.721.021-.147.05-.343.071-.493l-.288-.379ZM85.576,383.6l.032,0h.006l0,0h0a.063.063,0,0,1,.021,0h0l.017,0,.024,0,.017,0,.024,0a1.931,1.931,0,0,0,.279.005l.057,0-.032,0a8.938,8.938,0,0,0,2.908-.3c.024-.021.077-.012.107,0s3.3,1.378,2.707,2.506c-.443.849-2.64-.056-3.821-.542a3.434,3.434,0,0,0-.84-.29,6.284,6.284,0,0,1,1.253-.351,4.086,4.086,0,0,0-2.046-.1c-1.588.177-2.593.234-3.244-.786A12.957,12.957,0,0,1,85.576,383.6Zm-2.331,5.8c-.692-.587,1.142-1.413,3.917-2.663a11.127,11.127,0,0,0-1.877.238c.538-.375.941-.43,2.749-.1,2.184.393,2.868.388,3.2-.39l.015,0,.081.036c.014.148-.167.319,0,.446a1.774,1.774,0,0,0,.458-.1l-.009,0-.024,0-.069-.028-.09-.049.149.043.007.008.069.028,0-.006.014.01.056.017-.045-.028a.852.852,0,0,1,.253.077l-.161-.032a10.36,10.36,0,0,1,3.669,1.925c-.008.024-.019.058-.028.083a7.568,7.568,0,0,1-2.511-.76c.337.477.8,1.128-2.639,1.85a1.189,1.189,0,0,0,.409-.785c-.5-.5-1.123.372-1.615-.156.574-.654,1.65-.667,2.016-1.585-.528-.43-2.35-.419-4.262.729C85.787,388.921,83.642,389.743,83.245,389.407Zm11.2,1.653c-1.023.654-4.671.09-5.155-.013a2.788,2.788,0,0,1-1.1-.438l.016-.035c.352-.059,6.374.331,6.426.336C94.575,390.955,94.5,391.021,94.444,391.06Zm4.926-1.138c-1.944.8-3.23,1.333-4.677.88l-.018.06-.084-.092c-.752-.268-.651-.448-.433-.552a4.563,4.563,0,0,1,1.828-.171,13.249,13.249,0,0,0,3.606-.212C99.524,389.86,99.436,389.895,99.369,389.922Zm7.534-2.616c.616-.35,1.239-.685,1.868-1.012A10.282,10.282,0,0,1,106.9,387.306Z" transform="translate(-39.143 -255.266)" fill="#03aa6f"/>
      <path id="Path_4947" data-name="Path 4947" d="M97.475,397.565Z" transform="translate(-50.912 -269.225)" fill="#03aa6f"/>
      <path id="Path_4948" data-name="Path 4948" d="M97.424,397.564l-.008,0,0,0h.009Z" transform="translate(-50.901 -269.224)" fill="#03aa6f"/>
      <path id="Path_4949" data-name="Path 4949" d="M122.487,350.731a1.052,1.052,0,0,0,.433,0l0,0h0a5.253,5.253,0,0,1,1.035.793.237.237,0,0,1,.107.04c.092.049.208.111.266.067s.088-.111.034-.416a1.644,1.644,0,0,0-.038-.173c-.027-.1-.081-.3-.171-.15a.645.645,0,0,0-.032.066c-.235-.135-.441-.313-.682-.438a.484.484,0,0,0-.277-.062c.059-.1.092-.155.133-.238-.184-.439-.287-.547-.457-.487a3.659,3.659,0,0,0-.381.432A1.039,1.039,0,0,1,122.487,350.731Z" transform="translate(-56.177 -259.153)" fill="#03aa6f"/>
      <path id="Path_4950" data-name="Path 4950" d="M97.384,397.564h0Z" transform="translate(-50.898 -269.225)" fill="#03aa6f"/>
      <path id="Path_4951" data-name="Path 4951" d="M97.37,397.561h0Z" transform="translate(-50.895 -269.224)" fill="#03aa6f"/>
      <path id="Path_4952" data-name="Path 4952" d="M97.379,397.564h-.021l.107,0Z" transform="translate(-50.893 -269.225)" fill="#03aa6f"/>
      <path id="Path_4953" data-name="Path 4953" d="M120,357.631a1.166,1.166,0,0,0-.3-.011,1.666,1.666,0,0,0-1.245.591.8.8,0,0,0-.078.119c-.142.249-.158.548-.3.8-.188.336-.511.576-.671.934-.018.04-.056.126.1.265.527.481,2.526.362,2.476-1.063,0,0-.022-.572-.176-.419-.2.2-.175.506-.329.729.037-.222.126-.739-.193-.527a1.141,1.141,0,0,0-.182.161,1.877,1.877,0,0,1,.4-.567c.422-.493.516-.636.369-.707a.809.809,0,0,0,.119-.271Z" transform="translate(-55.111 -260.815)" fill="#03aa6f"/>
      <path id="Path_4954" data-name="Path 4954" d="M140.175,326.117c.105.083.168.132.456.068.39-.087.63-.9.631-.9-.153-.158-.38-.206-1.583-.221-.388,0-.869-.011-.71-.187a1.832,1.832,0,0,1,1.27-.436.3.3,0,0,0,.006-.337c-.159-.232-.45-.317-.613-.545a4.206,4.206,0,0,0-.872.738,11.646,11.646,0,0,0-.622,1,2.327,2.327,0,0,0-.929-1.166c-.06-.041-.144-.09-.205-.13-1.03.457-1.555.789-1.38,1.236.274.453,1.176.791,1.454.622.06.077.088.179.183.229.318-.192.318-.192.311-.359a1.463,1.463,0,0,0,.192.015c-.068.111-.274.444.369.291.118-.028.273-.081.389-.12-.306.238-.523.588-.9.736.248.023.5.105.25.534.024,0,.056.009.081.014.291-.014.5-.3.819-.238-.253.14-.265.161-.294.211a1.06,1.06,0,0,0,.849-.444c-.069-.006-.069-.006-.425.167.147-.359-.116-.741.066-1.1C140.088,326.047,140.088,326.047,140.175,326.117Z" transform="translate(-58.942 -253.644)" fill="#03aa6f"/>
      <path id="Path_4955" data-name="Path 4955" d="M134.067,319.912c.121.006.175.026.222.082.294-.393.234-.548-.217-.551l.141-.042c.017-.076-.012-.093-.04-.1.133-.106.444-.356.118-.375a1.333,1.333,0,0,0-.274.024c-.054.2-.053.336.13.351a.526.526,0,0,0-.242.084c0,.02,0,.048,0,.066-.148.011-.294.028-.442.035-.28.343-.537.7-.335.935.068.058.276.227,1.082.036.007-.088,0-.121-.013-.137l0-.008a.52.52,0,0,1-.362-.347C134.014,320,134.014,320,134.067,319.912Zm-.036-.955,0,0,.055.043Z" transform="translate(-58.408 -252.668)" fill="#03aa6f"/>
      <path id="Path_4956" data-name="Path 4956" d="M159.914,343.655c-.155-.073-.2-.034-.234-.008a.32.32,0,0,0,.021-.106c-.111.19-.342.585-1.6-.056-.01.551-.533.933-.489,1.5.036.482.2.574.658.715-1.211-.047-.866,1.163-.4,1.665.048.052.122.115.174.164-1.6-.568-2.007-.253-2.021-.146a1.742,1.742,0,0,0,.785.389c-.353.115-.554.335-.234.512a2.045,2.045,0,0,0,.457.15c-.373.175-.138.479-.013.642.129-.35.519-.465.7-.772l.1.167a.759.759,0,0,0,.324-.294c-.138.384.387.764.006,1.148a.721.721,0,0,0,.555-.6c.058.2.172.33.468.525.468-.174,1.709-.64,2.006-2.855A2.365,2.365,0,0,0,159.914,343.655Z" transform="translate(-63.243 -257.84)" fill="#03aa6f"/>
      <path id="Path_4957" data-name="Path 4957" d="M179.729,343.407c-.859-.316-1.336-.03-1.5.9-.066,1.09.6,2.058.531,3.15.486-.3.642-.244.694.234.433-.759.739-.557,1.307.219.887,1.208,1.153.212,1.222-.836A3.45,3.45,0,0,0,179.729,343.407Z" transform="translate(-67.917 -257.797)" fill="#03aa6f"/>
      <path id="Path_4958" data-name="Path 4958" d="M140.711,305.266c-.257.824-.4,1.679-.721,2.487-.488-.048-1.243.5-1.88,1.363-.007-.478-.655-.108-1.476.36-.969.553-1.2.452-1.645.249a.987.987,0,0,0-.752-.111,2.759,2.759,0,0,0-.371.163,2.893,2.893,0,0,0,.877,1.134.815.815,0,0,0,.429.137c.048-.006.112-.011.159-.021.251-.049.377-.313.628-.364.594-.122,1.206.007,1.8-.129.144-.395.144-.395.906-.708a4.189,4.189,0,0,0,.709-.537.624.624,0,0,1,.173-.05,9.3,9.3,0,0,0,1.975-1.04c.3-.272-.047-.569-.013-.855.155.009.517.032.374-.581-.211.144-.26.418-.459.57C141.984,305.506,141.724,304.753,140.711,305.266Z" transform="translate(-58.579 -249.76)" fill="#03aa6f"/>
      <path id="Path_4959" data-name="Path 4959" d="M128.861,347.172h0l-.008-.011Z" transform="translate(-57.523 -258.614)" fill="#03aa6f"/>
      <path id="Path_4960" data-name="Path 4960" d="M129.439,341.05h0l.014.006Z" transform="translate(-57.647 -257.327)" fill="#03aa6f"/>
      <path id="Path_4961" data-name="Path 4961" d="M130.593,318.727c.181.032.337-.164.527-.057.021-.029.193-.289.061-.344.129-.039.264-.064.392-.107h0c.049.023.1.048.557-.015.03-.047.069-.107.1-.154a.247.247,0,0,0,.083.161,2.567,2.567,0,0,0-.413.161.718.718,0,0,0,.084.462.672.672,0,0,0-.366.062c.019-.294-.032-.4-.149-.321a.807.807,0,0,0-.159.21.15.15,0,0,0,0,.026c-.006.058.072.077.064.135a.956.956,0,0,1-.036.125c-.089.306-.1.366-.089.4h.014c.044-.038.044-.038.243-.336a1.37,1.37,0,0,0,.579-.159.265.265,0,0,0,.172.145l.014.032.1-.053c.136-.2.15-.2.178-.2.009.029,0,.056-.017.131a2.264,2.264,0,0,0,.172-.226l.017.006a.288.288,0,0,0,.129.3c.139-.161.217-.259.336-.416a3.164,3.164,0,0,0-.291-.231l.01-.051c.041-.1-.06-.206-.061-.207.178-.289-.058-.291-.085-.29a.735.735,0,0,0-.145.235l-.084.009c.035-.17.106-.522-.165-.343-.032.022-.073.056-.1.08-.08-.01-.167.027-.449.173.186-.3.315-.574.009-.5a4.8,4.8,0,0,0-.871.4c.049-.06.115-.137.165-.2a1.446,1.446,0,0,0,.238-.261l-.013-.006a.44.44,0,0,0-.1.058c0-.016,0-.051-.052-.034l-.141.177-.038.046a2.282,2.282,0,0,0-.247.37l.011.009c-.069.21-.009.228.165.283l-.322.3Z" transform="translate(-57.89 -252.372)" fill="#03aa6f"/>
      <path id="Path_4962" data-name="Path 4962" d="M123.417,348.409v0h0Z" transform="translate(-56.379 -258.876)" fill="#03aa6f"/>
      <path id="Path_4963" data-name="Path 4963" d="M128.842,347.146l.008.012a.051.051,0,0,0-.009-.012Z" transform="translate(-57.521 -258.61)" fill="#03aa6f"/>
      <path id="Path_4964" data-name="Path 4964" d="M181.678,334.878c-.343-.115-.475.2-.526.315a7.187,7.187,0,0,0-.164,1.306c-.309-.118-.825-.317-1.121.226a.345.345,0,0,0,.008-.238c-.354-.082-2.505,1.569-2.526,1.587a2.161,2.161,0,0,0-.646.862c-.216-1.483-1.609-2.265-2.067-1.684-.222.281-.159.627.051,1.771-.846-1.089-.846-1.089-1.3-1.239.1.052.242.12.345.17a3.625,3.625,0,0,1,.772,2.625c-.407.167-.407.167-.409.26a.979.979,0,0,0-.926-.542c-.116.36.048.495.347.74.153.144.308.287.459.433l.039-.035a.9.9,0,0,0,.685.3l-.006.056.032-.04c-.171-.237-.463-.213-.692-.325a.375.375,0,0,0,.124-.459c.108.133.194.24.555.029.054.085.235.345.315.051.006-.024.006-.024-.008-.174a.341.341,0,0,0-.174.038.587.587,0,0,0-.047-.617,6.293,6.293,0,0,0,.92.684c.009.2.014.306.306.6a4.37,4.37,0,0,0-.493-1.412c.255.114.307.177.709.661l-.137-.117a7.208,7.208,0,0,0,.423.814c.051-.034.073-.048.283.045a1.74,1.74,0,0,0-.272-.469c.328.2.744.112.7-.144a1.778,1.778,0,0,0-.628-.723c1.138.453,1.217.029,1.453-1.226.264.46.926.593,1.028.206a.492.492,0,0,0-.008-.187,1.891,1.891,0,0,1,.822,1.207c.249.718.249.718,1.661,1.813a2.47,2.47,0,0,0,.617-2.443,2.91,2.91,0,0,1,.174.39,6.208,6.208,0,0,1,.542-4.281C182.338,336.115,182.162,335.039,181.678,334.878Z" transform="translate(-66.846 -256.023)" fill="#03aa6f"/>
      <path id="Path_4965" data-name="Path 4965" d="M157.889,323.69a.089.089,0,0,0,.022-.018c-.008.008-.021.013-.024.02Z" transform="translate(-63.636 -253.669)" fill="#03aa6f"/>
      <path id="Path_4966" data-name="Path 4966" d="M197.239,324.229l.042.139c.354.752,1.1.831,1.123.725h0v0h0c.287-.016.4-.152.508-.585a1.914,1.914,0,0,0-1.194-.351A2.4,2.4,0,0,0,197.239,324.229Z" transform="translate(-71.92 -253.77)" fill="#03aa6f"/>
      <path id="Path_4967" data-name="Path 4967" d="M157.941,323.648l0,0a.153.153,0,0,0-.022.017A.124.124,0,0,1,157.941,323.648Z" transform="translate(-63.642 -253.664)" fill="#03aa6f"/>
      <path id="Path_4968" data-name="Path 4968" d="M199.848,325.562a1.731,1.731,0,0,1,.584-.265c.459-.161,1.153-.407,1.217-.81.094-.6-.712-1.173-1.438-1.228l-.073,0c-.412,0-.6.216-.563.661a6.464,6.464,0,0,0,.248.978c.142.458.129.481,0,.7Z" transform="translate(-72.411 -253.581)" fill="#03aa6f"/>
      <path id="Path_4969" data-name="Path 4969" d="M140.277,355.251c-.009.024-.018.05-.027.075l0,0,.02,0,.056-.009c-.017-.02-.034-.042-.051-.063Z" transform="translate(-59.923 -260.316)" fill="#03aa6f"/>
      <path id="Path_4970" data-name="Path 4970" d="M77.5,321.177a.151.151,0,0,0,.038-.017c-.011.008-.025.008-.037.016Z" transform="translate(-46.711 -253.14)" fill="#03aa6f"/>
      <path id="Path_4971" data-name="Path 4971" d="M198.224,355.684a.085.085,0,0,0,.011.036Z" transform="translate(-72.128 -260.408)" fill="#03aa6f"/>
      <path id="Path_4972" data-name="Path 4972" d="M191.818,267.815c.029.032.058.068.088.1l-.012-.016Z" transform="translate(-70.779 -241.909)" fill="#03aa6f"/>
      <path id="Path_4973" data-name="Path 4973" d="M161.585,261.01c2,2.471,4.354,9.016,4.383,10.546l-.439.434-.51-.25c.075-.864.066-1.139-.639-3.049l-.512.283c-.2-.111-.462-.264-.66-.376,1-1.631-1.95-7.753-4.885-11.135A75.246,75.246,0,0,0,142.6,245.21l-.876-.5c-2.833-1.492-4.693-2.345-6.407-2.584,1.324,1.229,3.552,1.4,4.122,3.512,2.9.1,6.924,3.43,6.964,3.464a8.862,8.862,0,0,1,2.027,2.792,1.692,1.692,0,0,0-.249-.181l-.006,0a.884.884,0,0,0,.19.171.8.8,0,0,0,.091.058,11.636,11.636,0,0,0,1.7,2.619l0,0c-4.321-2.364-7.354-6.328-11.333-9.117-1.9-1.331-1.9-1.331-15.959-7.187-.09.107-.3-.117-.433-.166a21.611,21.611,0,0,0-3.626-.977,7.191,7.191,0,0,1,1.759.234A51.276,51.276,0,0,0,114.3,236.1l.894-.034a5.231,5.231,0,0,0-1.371-.531,76.207,76.207,0,0,0-15.641-.252l-.032,0c-2.571.263-5.77.591-19.873,4.537q-2.058.778-4.057,1.674l-.028.013-.555.25a75,75,0,0,0-13.09,7.689,10.9,10.9,0,0,1,1.513-.936c-.377.769-4.609,3.8-4.649,3.827.118-.215.118-.215.834-.968l-.274.087c.1-.088.239-.206.342-.3-1.405,1.127-1.716,1.421-2.078,1.764l.723-.363c-2.459,3.847-7.583,5.53-8.578,10.566l.1-.157h0c.862.613.1,1.61.013,1.719.084.088.2.2.284.292a2.366,2.366,0,0,0-.024.306c.541-.036.541-.036,1.828-1.394-.052.1-.122.244-.176.348l.4.209a4.115,4.115,0,0,0,1.047-.5,5.816,5.816,0,0,0-1.328,1.093c3.244-1.724,3.244-1.724,3.677-1.9,1.337-.474,1.337-.474,1.968-.259-.116.8-.4,1.554-.594,2.334l.221.341c4.714-4.352,4.714-4.352,5.823-4.378.167,1.127-.943,4.317-2.481,4.259l-.249-.293c.041-.155.1-.361.137-.516l-.36.264-.371-.265c-.11.038-.286.043-.366.127-.7.742-.467,1.888-1.138,2.644-.624.7-1.656.65-2.33,1.262.044-.113.1-.261.148-.373l-.234-.348a22.868,22.868,0,0,1-1.929,1.971l.042-.024-.08.1.029-.069a7.443,7.443,0,0,1-.79.557l-.408-.165c.1-.066.241-.159.344-.227-.024-.113-.057-.264-.081-.378a3.739,3.739,0,0,0-2.363.383c-.812.632-.674,1.773-1.33,2.491.6.038,1.019.665,1.678.514,1.351-.31,2-2.109,3.668-1.742.21.045.388.767.577,1.53.223.9.4.984.785,1.164l.508-.194c-.1.113-.229.265-.328.377a3.253,3.253,0,0,1,.095.846c-3.482,2.223.828,6.458,4.219,7.147a7.417,7.417,0,0,0,4.7-.443l-.287.321a3.221,3.221,0,0,0,3.283-1.789,3.48,3.48,0,0,0-.735-.16,1.962,1.962,0,0,0,.223-.719,1.972,1.972,0,0,0,.812-.025,2.04,2.04,0,0,0,1.746.178c-.355-.327-.355-.327-1.852-.47,3.382-3.939,5.064,2.822,5.184,3.924.2,1.842-2.372,2.139-2.2,3.964a3.838,3.838,0,0,0-.752.983l-.03.05-.011.017-.011.018-.011.018-.011.017-.011.018-.01.017-.011.018a6.91,6.91,0,0,1-.5.684c-.051.018-.051.017-.05.016.025-.132.06-.308.086-.44l-.244-.3c-.326.106-1.319.426-.961,2.552,4.579.122,4.1,1.377,3.4,2.113a6.49,6.49,0,0,1-2.709.8c.925.785.924.928.92,1.353,1.059-.11,1.059-.11,1.427-.122-.068.164-.157.384-.224.548a9.716,9.716,0,0,0-2.484.362c-1.022-1.078-3.348-1.137-3.081-3.22l0,0v0l0,0v-.006l0,0v0l0,0c-3.947.132-6.778,3.186-10.465,4-.064-.221-.153-.516-.223-.736l-.045,0-.015,0-.414.167a4.6,4.6,0,0,0,.786.763,14.693,14.693,0,0,1,2.038.679l.1.669v0a3.624,3.624,0,0,1,1.674-.261,3.436,3.436,0,0,0,.336.791c2.817.1,4.435-3.5,7.562-2.447.422.143.422.143-1.164,4.61a2.748,2.748,0,0,0,2.179,1.058c.053,1.362.748,1.405,1.164,1.43a18.036,18.036,0,0,0-.934,1.738c1.584-.622,2.494-2.139,3.929-2.958a7.49,7.49,0,0,1,.29.779,3.069,3.069,0,0,0,1.3-.151c-.968,1.883-4.146,2.88-2.949,5.624a4.063,4.063,0,0,0,1.757-1.15,6.635,6.635,0,0,1-.083.883c1.725.1,2.574-.911,2.526-3,6.236-6.1,6.236-6.1,7.017-7.955l-.257-.5a2.115,2.115,0,0,0-1.535.28,1.631,1.631,0,0,1,1.832-.756,34.209,34.209,0,0,1,5.485-5.653,1.752,1.752,0,0,1,2.488.189c.926,2.181,3.857-1.409,3.88-1.461a3.374,3.374,0,0,0-1.181-.687,3.77,3.77,0,0,0,.735-.282c-.057-.109-.133-.257-.189-.366-.285-.02-.283-.02-.282-.021.763-.192,1.673.287,2.308-.5a3.559,3.559,0,0,0-.306-.954c.667-.081.68-.082,5.218,1.853-.184-1.161-.184-1.161-.154-1.3.473-.164.921-.318,2.29.707a24.28,24.28,0,0,1,2.1,1.391c.688.635.346,1.693.966,2.357.751.8,2.1.574,2.726,1.588l.267.049c.46-.377.519-.425.537-1.284.114.009.266.022.38.029l0-.406a3.524,3.524,0,0,1,.762-.238c.042.113.222.455.264.568l.171.039c.231-.189.548-.431.8-.6,1.712.995,1.9-1.3,1.9-1.326a1.682,1.682,0,0,0-.129-.427l.315-.394c1.5.332,1.5.332,1.9.17l-.011,0,0,0c-.5-.723-.5-.723-.585-2l.472-.009c.276.531.276.531,1.1.8l.121.434a1.5,1.5,0,0,1,.139-.873c.091.1.211.234.3.335-.045-.572-.4-1.075-.375-1.663.257.139.6.314.864.44.313,1-.378,1.862-.4,2.818.526-.949.931-1.686,1.217-2.3-.165.819-.317,1.761-.45,2.853.169.4.17.4.171.4l0,0,.176.488c3.588-2.478,3.383-5.146,3.129-6.178l.519.133c.609,1.7,1.388,3.332,1.978,5.04a7.341,7.341,0,0,1,.224-2.481,11.593,11.593,0,0,1,2.7,1.367,1.437,1.437,0,0,1-.606.629c1.289,1.681,3.188.2,4.667.9.012.149.028.347.04.5a2.215,2.215,0,0,1-.793.526l-.335-.29a1.35,1.35,0,0,0-.593,1.821c.131.044.3.1.436.146,1.939-2.221,1.939-2.221,2.509-2.806-.5,1.751,1.423,1.249,1.443,1.243a2.833,2.833,0,0,0,1.043-.816c-.024.876.725,1.384,1.014,2.11.159-.483.132-1,.3-1.484l.48.084c.67,2.282-1.914,3.183-2.156,5.079-1.095-5.3-1.095-5.3-2.732-3.632-.821.834-.72,1.546-.234,4.968l-.409.364a3.072,3.072,0,0,0,.342,1.431l-.553-.016-.272-.354-.261.463a1.632,1.632,0,0,0,.6.707l-.5.1a1.936,1.936,0,0,0,.981.389c-.121.058-.283.137-.4.2a6.068,6.068,0,0,0,.924.291,9.933,9.933,0,0,1-1.1.077c-.043.15-.1.35-.146.5.668.43.788.508,1.721.052.009.133.021.31.03.444l.455-.02a1.729,1.729,0,0,0,.653.7c-.242.18-.568.414-.818.581a1.886,1.886,0,0,0,.842.161c.153.226.348.533.488.767.082-.107.192-.25.274-.359.119.078.279.181.4.26l-.132.437-.493.024c.8.227,1.373.891,2.166,1.133a2.463,2.463,0,0,0-.384-.908c.074-.13.174-.3.248-.433.28.208.28.208,1.515.664a.189.189,0,0,1,.014-.025l.023.037c1.087.456,5.324,2.682,5.528,2.906a14.382,14.382,0,0,1,1.136,1.455c.376.591.376.591,3.809.408.032-.133.077-.307.111-.439.126.034.3.079.425.114.766-.757,2.192-2.166-1.028-3.651,3.014-2.317,3.648-2.648,4.867-1.626l-.3.329.271.368a3.716,3.716,0,0,0,.651-.653l.438.171.148.427c.363-.932.256-.954-1.539-1.322,1.168-1.1-.453-3.074-2.55-3.113a34.3,34.3,0,0,1-3.632-.661c-.924,1.442-2.075,3.236-6.163.067-.747.676-.747.676-1.431.615a2.339,2.339,0,0,1,.122-2.2c2.835,1.048,2.835,1.048,6.256-.389-.1-1.69-2.191-2.512-1.914-4.369l.155.028a3.222,3.222,0,0,1,.133-1.11l.452.069c1.209,2.952,1.209,2.952,1.735,3.207,1.277.621,1.851-.965,2.938-.938.3.609-.085,1.209-.026,1.813.287.135,1.05.5,4-.238a1.813,1.813,0,0,1,.546.775l1.351,5.451c-.136-.037-.315-.09-.45-.129,1.4,2.7.136,3.43-.341,3.707a1.432,1.432,0,0,0,.432-.792,2.707,2.707,0,0,0-.9-.224l-.264.373.193.4a7.62,7.62,0,0,0-.864-.722,3.283,3.283,0,0,1-1.993.368,3.274,3.274,0,0,0,1.157,1.393l-.018-.036.025.042a3.07,3.07,0,0,0,.566.223c2.057.27,2.818-.152,3.185-.357.126.042.3.1.422.14-.5.885-.682,1.217,1.885,4.562,1.941,2.53,2.806,3.971,2.358,6.256l.254.359a3.226,3.226,0,0,0,.972-.27,17.382,17.382,0,0,0,.019,3.824c1.119-2.633,3.921-5.8,5.066-2.211.53,1.66-.2,3.411-.73,4.69-.879,2.112-1.674,5.683,2.871,5.869a6.578,6.578,0,0,0,1.47.679c-.02-3.827,3.359-6.969,2.217-11.02-.9-3.2-4.643-4.8-4.764-8.441,0-.406,0-.418,0-.428.3-10.952.378-13.9,3.2-14.277a25.95,25.95,0,0,1,1.118,2.937c.723-.631.379-1.464-.757-4.226-.508-.093-.787-.145-1.783.758l.011.017-.017-.017c-.226-.806-.253-1.644-.4-2.465-1.592,2.547.189,6.279-2.915,8.294-.714-.566-.749-.771-1.093-2.736a1.7,1.7,0,0,1,.732-.517l3.323-9.726.508.063c.314-.627.586-1.167.084-2.91a5.322,5.322,0,0,0-.541.831l-.227-.508-.461-.141-.089-.505-.424.245c.007-.293.007-.684,0-.978-.6.919-.479,2.046-.871,3.027l-.475-.105a2.541,2.541,0,0,0,.362-.987,1.593,1.593,0,0,1-.617-.675c-.043.181-.1.422-.141.6-1.154-.4-1.572-3.155-1.012-3.571,1.048-.779,1.048-.779.987-1.3a4.324,4.324,0,0,0,.754-.712,25.293,25.293,0,0,0-4.761-9.227c-1.915-2.1-.653-2.593.744-2.634,3.634.32,6.551,6.635,7.967,10.371,6.531,17.24,6.786,17.913,4.752,23.2-.689.565-1.16-.5-1.777-.645-.884-.209-.805.7-.662,2.359.174,1.86.86,15.621.551,17.432-.274,1.614-1,3.114-1.191,4.749-.069.6-.069.6.223,3.692.222,2.921.222,2.921,1.456,3.808a79.721,79.721,0,0,1-2.52,12.14,10.6,10.6,0,0,0,1.052-1,72.072,72.072,0,0,0,9.216-34.421A74.717,74.717,0,0,0,161.585,261.01Zm-44,24.093a3.07,3.07,0,0,0-.275-1.027c-.3-.045-.706-.117-1-.186a11.176,11.176,0,0,1-.161-2.225l-.137-.226h.006c.373.4.373.4.557,2.211a1.449,1.449,0,0,0,.877.058c1.416-2.622,1.416-2.622,2.752-2.046C119.728,281.734,118.553,281.909,117.582,285.1Zm27.653-19.8c.3.147.592.406.493.686-.208.59-.947.679-1.177,1.247a1.043,1.043,0,0,0-.317-.553c-1.16-.771-2.721-.1-3.826-1.067-1.3-1.144-1.016-1.543-.739-1.926.327-.452.3-.534.074-.947,1.643.884,1.643.884,1.783.891a.861.861,0,0,0,.06-.531,1.266,1.266,0,0,0,.756.252c.049-.341.105-.728-.763-2.447a6.636,6.636,0,0,1-.775-2.571,11.148,11.148,0,0,1,.589-4.023l.022.017c1.031.776,2.418.991,3.259,2.067l-.017.009.029.021c.029.116.029.116.221.344.479.567,1.476,1.748,1.5,2.434a1.127,1.127,0,0,1-1.595,1.07,1.8,1.8,0,0,1-.551-.4C144.466,261.708,147.742,264.621,145.235,265.3Zm8.123,13.132,0,.017-.037-.013-.014-.01-.143-.039.138.043a2.17,2.17,0,0,1-.4-.135c.028-.006.028-.006.106.013a6.671,6.671,0,0,1-3.225-3.116c.052.017.123.036.174.053a2.17,2.17,0,0,1,1.158.995c.219-.408-.218-.791-.049-1.2.306.667.795.347,1.087.156C153,276.636,153.964,278.267,153.358,278.435Zm6.808,1.574c.561,1.179.216,2.462.418,3.683-.946-.621-1.14-.653-2.606-.426a2.441,2.441,0,0,1-2.114-.411l.008.068-.014.2-.011-.282c-.829-.718-1.121-1.749-1.6-3.456,1.176.407,1.176.407,1.373.347.075-.325-.181-1.262-1.611-2.7-2.256-2.272-3.186-8-2.12-8.042.014,0,1.482.034,2.7,2.094,1.032,1.745,1.468,3.767,2.544,5.49C157.951,277.882,159.482,278.571,160.166,280.01Z" transform="translate(-40.459 -235.001)" fill="#03aa6f"/>
      <path id="Path_4974" data-name="Path 4974" d="M196.064,293.792l0,0,0,0Z" transform="translate(-71.672 -247.377)" fill="#03aa6f"/>
      <path id="Path_4975" data-name="Path 4975" d="M196.054,293.785l0,0,0,0Z" transform="translate(-71.671 -247.377)" fill="#03aa6f"/>
      <path id="Path_4976" data-name="Path 4976" d="M146.314,358.581a1.543,1.543,0,0,0-.467-.214c.148-.2.148-.2.376-.935a2.461,2.461,0,0,0-.4-2.138c-.222-.245-.222-.245-.439-1.532a1.525,1.525,0,0,1-.174.254c.01-.051.024-.119.033-.169-.026-.037-.062-.085-.09-.121l-.119.084a1.455,1.455,0,0,1,.212-1.874c.22.291.25.71.613.9.085-.058.206-.164.219-.268.009-.073.148-2.6.147-2.605a5.861,5.861,0,0,0-.8-2.17c1.067-.154.681-2.431.676-2.453l0,0c-.554-.935-.219-2.061-.651-3.024-.762.006-.762.006-1.074,1.405-.257-.193-.849-1.1-.748-1.361.614.172.759.212,1.02.108.052-.282.052-.282-.583-1.265l-.178-.036-.132.09c.022.049.05.111.071.161a2.737,2.737,0,0,0-.46-.508,2.243,2.243,0,0,1,.047.333c-.734.541-1.5-.166-2.241.055.062-.324.448-.5.4-.876a.941.941,0,0,0-.324-.042c-.052.074-.117.174-.16.252l-.1-.1c.136-.322.54-.334.71-.617-.126-.313-.426-.505-.558-.812-.039.031-.091.076-.13.106.038.21.038.21.221.437-.752-.425-.749-.442-.651-1.375l-.04-.161a5.7,5.7,0,0,1-1.045.211c0-.06.009-.14.013-.2a8.5,8.5,0,0,1-1.272-.671.411.411,0,0,1-.609.375,2.428,2.428,0,0,1-.193-1.213c-.138-.121-.2-.161-.418-.013a1.026,1.026,0,0,1-.073.281,1.763,1.763,0,0,1-.066-.338c-.144-.119-.187-.156-.423,0a1.808,1.808,0,0,0,.126.476c-.022-.012-.022-.012-2.792-2.531.023-.258.045-.524-.674-.916-.1-.055-.246-.118-.352-.169-.512.741-.512.741.665,2.361l-.074.133c-.214-.032-.214-.032-.495-.279-1.612-1.421-2.7-1.582-3.234-.482a2.93,2.93,0,0,0,.145,1.408l.1.065-.031-.045.013.017.057.06.024.016-.028-.011-.012,0-.006-.01-.134-.073c-.054.366-.024.737-.072,1.1l-.147.1c.088.118.088.118.827.336-.335.35-.769.017-1.133.164a.663.663,0,0,0,.542.385l-.129.086.126.112a.592.592,0,0,0-.306.008c.122.374.122.374.107.565-.357-.5-.7-.444-.774.122-.007.055-.012.127-.017.182l.149.088-.152-.084c-.045.576-.093.625-.2.782a2.411,2.411,0,0,1-.373.163c.287-.147.212-.358.209-.365a1.449,1.449,0,0,0-.159-.411c-.136-.287-.242-.512-.092-.453a2.673,2.673,0,0,0-.623-.224.706.706,0,0,0-.711.189c-.289.345-.339.85-.743,1.12-.222.145-.509.187-.677.421a2.078,2.078,0,0,0-.282.838c.043.007.1.013.144.017a.365.365,0,0,1-.13.045c-.392.842-.392.842-.626.82.184.122.36.256.543.379a.422.422,0,0,1,.287-.439.864.864,0,0,1-.233.471v0c.257.081.479.278.773.244a1.512,1.512,0,0,0,.41.934c-.363-.1-.548-.521-.96-.53-.524.542.44.988.4,1.547.162-.053.251-.082.493.43a10.123,10.123,0,0,1-1.011-.864,2.588,2.588,0,0,0-1.282-1.957c-.077.062-.1.089-.086.227a3.7,3.7,0,0,1-.448,1.284c.147.008.184.028.354.186a.413.413,0,0,0-.449-.019,1.337,1.337,0,0,1,.114.628c.056.055.092.092.1.4a.409.409,0,0,0,.538-.19c-.018.107-.022.13.1.187a.675.675,0,0,0-.483.312c.118.091.126.122.065.276.049.051.077.078.251.1l0,.1c.208.109.279.415.572.4.057-.1.067-.167.037-.5.086.373.107.393.164.449.043-.092.043-.092.106-.586a2.128,2.128,0,0,1,.094.362c.059-.073.059-.073.058-.7.119.308-.035.658.149.956.357,0,.476-.238.553-.624a6.014,6.014,0,0,1-.136,1.116c-.27-.247-.275-.252-.4-.3h0c-.084.2-.2.743.008.907-.125.212-.411.24-.523.464a5.468,5.468,0,0,0-.029.635c.5-.224.849-.717,1.416-.83a.649.649,0,0,1,.726.4l-.08,0a.75.75,0,0,0,.065.427,3.545,3.545,0,0,0,.69-1.438c-.4-.065-.4-.065-.52-.158l0,0a.327.327,0,0,1,.081-.133c.84-.755,1.027-.992.716-2.507,0,.022-.009.05-.011.071l-.077.028a1.257,1.257,0,0,1-.271-.333c.086-.081.129-.2.227-.27l.069.012c-.261-.384-.261-.384.634-2.286.092.2.138.294.241.49a.475.475,0,0,0,.388-.126c.347,1.164-.081,1.979-.541,2.053-.441.069-.377.426-.092,1.1.565.111.565.111.643.283-.114.1-.152.172-.09.488a.4.4,0,0,0-.147-.05c-.074.07-.082.078-.052.24a.222.222,0,0,0,.2-.084c.1.154,0,.4.223.494.411.176.613.1.79-.059.1.288.083.32.03.406-.3.061-.3.061-.319.116a1.162,1.162,0,0,0,.276.127c.941.153,1.8-.437,2.736-.306.476.066.5.614.854.806l-.033.048a2.369,2.369,0,0,1,.831.215c-.1,0-.193-.009-.29-.015.546.514.546.514.538.72.261.155.261.155.315,1.067.2-.027.444-.061.608,1.174.429-.066.808-.286,1.225-.386.006-.009.013-.025.019-.037a.38.38,0,0,0-.246-.147,1.063,1.063,0,0,0-.292,0c.128-.033.254-.073.38-.113a2.24,2.24,0,0,1,.171-.339.913.913,0,0,1-.064.3l.163-.056c0,.053.01.124.014.174-.032.156-.015.178,0,.2a.754.754,0,0,1,.722.227,3.311,3.311,0,0,1-.313.282h0v0h0q-.148.113-.294.229c-.408.328-.552.5-.547.647a1.584,1.584,0,0,0,.4.054c.622.048,1.046.1,1.258.341a.482.482,0,0,1-.041-.311,1.471,1.471,0,0,1,.152-.306,2.285,2.285,0,0,0,.082.6l.059.225a7.184,7.184,0,0,1,.376,1.475c.051.853-.118,1.693-.137,2.544.268.02.31.047.388.115l-.025.051a.691.691,0,0,1-.107.023l.76.92c2.593,3.435,2.7,3.568,3.884,4.371,1.737,1.172,2.4.527,2.645.037.017-.043.039-.1.057-.142,0,.053,0,.161,0,.216v.009a2.092,2.092,0,0,0,.029.338.4.4,0,0,1,.119-.161,1.442,1.442,0,0,1,.733-.291.732.732,0,0,1-.22.212C147.943,362.268,147.178,359.238,146.314,358.581Z" transform="translate(-56.353 -255.716)" fill="#03aa6f"/>
      <path id="Path_4977" data-name="Path 4977" d="M121.692,355.166a.085.085,0,0,0,.032.024.328.328,0,0,0-.032-.026Z" transform="translate(-56.016 -260.298)" fill="#03aa6f"/>
      <path id="Path_4978" data-name="Path 4978" d="M118.407,355.979c.122.108.34-.288.331-.473a.226.226,0,0,0,0-.032c.033.066.061.09.066.073a.4.4,0,0,0-.028-.118l-.041-.013a.166.166,0,0,0-.1-.021c-.178.023-.3.292-.3.3S118.336,355.917,118.407,355.979Z" transform="translate(-55.309 -260.347)" fill="#03aa6f"/>
      <path id="Path_4979" data-name="Path 4979" d="M117.642,365.377c-.418.076-.84-.133-1.257.012a1.245,1.245,0,0,0-.582.63c.024.044.016.1.047.143a.118.118,0,0,0,.1.054c.131.247.993.952,1.611.272.028-.031.062-.077.088-.109-.1-.047-.22-.106-.215-.283a2.818,2.818,0,0,1,.246-.728Z" transform="translate(-54.776 -262.44)" fill="#03aa6f"/>
      <path id="Path_4980" data-name="Path 4980" d="M121.7,355.194c.018.016.043.037.06.054a.247.247,0,0,1,.091.226.575.575,0,0,1-.12.2.822.822,0,0,0-.148.246c.207.068.363.231.571.3a.391.391,0,0,0,.35,0c.18-.091.163-.45.145-.83a.177.177,0,0,0,0-.028,2.673,2.673,0,0,0-.017.3c0-.082.006-.161.006-.242,0,.031,0,.062,0,.092l0-.1,0,.21c0-.094-.009-.311-.18-.39a.834.834,0,0,0-.485-.034C121.767,355.215,121.741,355.209,121.7,355.194Zm.921.662v.009l0-.021v.029l0,.009Z" transform="translate(-55.993 -260.301)" fill="#03aa6f"/>
      <path id="Path_4981" data-name="Path 4981" d="M122.919,355.452v.015c0-.02,0-.039,0-.058C122.92,355.423,122.919,355.437,122.919,355.452Z" transform="translate(-56.274 -260.35)" fill="#03aa6f"/>
      <path id="Path_4982" data-name="Path 4982" d="M121.732,355.2h0Z" transform="translate(-56.024 -260.306)" fill="#03aa6f"/>
      <path id="Path_4983" data-name="Path 4983" d="M122.92,355.4v-.02h0l0,.009Z" transform="translate(-56.274 -260.344)" fill="#03aa6f"/>
      <path id="Path_4984" data-name="Path 4984" d="M122.919,355.477v0Z" transform="translate(-56.274 -260.364)" fill="#03aa6f"/>
      <path id="Path_4985" data-name="Path 4985" d="M139.694,384.112h0l0,0h0l0,0h0l0,0h0l0,0h0l0,0h0v0h0l0,0,0,0,0,0h0l0,0,0,0h0l0,0,0,.009a.023.023,0,0,0,.021.017l-.035.054c-.047.073-.068.152.19.092.058-.013.115-.03.172-.049l.034-.011a3.092,3.092,0,0,0-.339-.077l.014-.054Z" transform="translate(-59.785 -266.392)" fill="#03aa6f"/>
      <path id="Path_4986" data-name="Path 4986" d="M122.919,355.468v0h0v0Z" transform="translate(-56.274 -260.362)" fill="#03aa6f"/>
      <path id="Path_4987" data-name="Path 4987" d="M122.865,353.475a.959.959,0,0,1,.359.211c.109.15.212.292.118.835a2.507,2.507,0,0,0-.157.709,1.91,1.91,0,0,0,.288.515.294.294,0,0,1,.011-.159l.015,0,.018.085c.06.247.1.333.164.369.1-.043.139-.063.262-.516a2.2,2.2,0,0,1,.1-.332c.044-.088.251.042.626.28.4.253.714.453.859.419a1.91,1.91,0,0,0,1.3-.924,1.946,1.946,0,0,0,.057-.289c-.156.26-.844.944-3.181-1.147a.453.453,0,0,0,.6-.073c-.183-.387-.332-.774-.05-.72-.028-.105-.117-.087-.163-.022-.111.156,0,.389.039.464a1.693,1.693,0,0,0-1.308-.463,1.1,1.1,0,0,0-.541.338A1.009,1.009,0,0,0,122.865,353.475Z" transform="translate(-56.139 -259.772)" fill="#03aa6f"/>
      <path id="Path_4988" data-name="Path 4988" d="M110.26,355.58a4.456,4.456,0,0,0-3.294.572c-.7.457-.786.591-.962.943-.227.452-.02.973-.227,1.428.361-.576.526-.839.988-.939.855-.186,1.669.227,2.515.178-1,.384-1.744,1.268-1.111,1.584a.833.833,0,0,0,.549.035c-.382.174-.694.474-1.1.611-.3.1-.382.045-.414-.092a2.2,2.2,0,0,0,.045.546c-1.138-.022-.324,1.83.354,2.434.04.035.1.072.145.1h0v0h0a3.607,3.607,0,0,0,2.955-.15c-.632,1.387,1.119.882,1.137.877.369-.114.79-.323.7-.669a3.492,3.492,0,0,0,1.041-.6c-.232.071-.977-.759-.261-2.128.613-1.171.667-1.5.647-1.977.126.078.171.238.308.3.094.044.155,0,.227-.045-.013-.094-.013-.094.1-.463.079-.025.2-.062.242-.135.122-.221-.219-.768-.589-.648-.233.076-.368.36-.457.549.1.025.142.086.241.324-.027.013-.064.026-.091.037v-.009c-.159-.345-.441-.015-1.048.82-.561.773-.711.908-.851.936l-.039-.029a4.834,4.834,0,0,1,.535-1.063c-.092-.265-.384-.367-1.3-.452a3.831,3.831,0,0,1-.8-.117.442.442,0,0,1,.106-.131c.382-.363.967-1.093.34-1.021.069-.189.237-.324.292-.523a.82.82,0,0,0-.018-.459C111.118,356.063,110.924,355.791,110.26,355.58Z" transform="translate(-52.665 -260.365)" fill="#03aa6f"/>
      <path id="Path_4989" data-name="Path 4989" d="M115.739,364.223a.4.4,0,0,0-.066.054.462.462,0,0,0,.064-.053Z" transform="translate(-54.749 -262.206)" fill="#03aa6f"/>
      <path id="Path_4990" data-name="Path 4990" d="M118.571,354.49s-.006-.011-.01-.012h0Z" transform="translate(-55.357 -260.154)" fill="#03aa6f"/>
      <path id="Path_4991" data-name="Path 4991" d="M120.243,357.3a.262.262,0,0,0-.027.051h.006v-.009c.036-.021.039-.043.039-.043l0,0s-.012,0-.032.038l.011-.024S120.244,357.306,120.243,357.3Z" transform="translate(-55.705 -260.748)" fill="#03aa6f"/>
      <path id="Path_4992" data-name="Path 4992" d="M121.644,377.159c-.161.286-.363.618-.438.742.676.2,1.217-.372,1.656-.955l.073-.1a.451.451,0,0,0-.415-.1,1.639,1.639,0,0,0-.486.166,1.511,1.511,0,0,1-.317.149.287.287,0,0,1,.039-.081A.805.805,0,0,0,121.644,377.159Z" transform="translate(-55.913 -264.84)" fill="#03aa6f"/>
      <path id="Path_4993" data-name="Path 4993" d="M104.744,308.373c.073.316.815.615.822.617a.656.656,0,0,0,.728-.077,1.223,1.223,0,0,0,.321-.66c-.029.07-.174.008-.523-.141C105.7,307.946,104.528,307.441,104.744,308.373Z" transform="translate(-52.442 -250.333)" fill="#03aa6f"/>
      <path id="Path_4994" data-name="Path 4994" d="M118.6,354.521a.1.1,0,0,0-.024-.028.041.041,0,0,1,.024.029Z" transform="translate(-55.359 -260.157)" fill="#03aa6f"/>
      <path id="Path_4995" data-name="Path 4995" d="M128.254,353.3c.094-.041.1-.127.088-.406l0-.05-.009.024c-.049.121-.1.239-.153.359l-.006-.009c-.009-.017-.017-.036-.026-.051l-.006-.006a.484.484,0,0,0,0,.149C128.172,353.315,128.274,353.346,128.254,353.3Z" transform="translate(-57.372 -259.809)" fill="#03aa6f"/>
      <path id="Path_4996" data-name="Path 4996" d="M124.087,378.568l.119.124c.227.15.688-.61.684-1.008,0-.178-.091-.2-.139-.206h-.009l0,0h-.01c-.2.04-.526.446-.631.688a.576.576,0,0,0-.058.3A.224.224,0,0,0,124.087,378.568Z" transform="translate(-56.509 -264.996)" fill="#03aa6f"/>
      <path id="Path_4997" data-name="Path 4997" d="M123.447,374.6c.026,0,.082-.014.147-.032l.03-.009a2.207,2.207,0,0,0-.511-.14c.524-1.132-.753-1.639-.954-1.671-.028.069-.066.161-.093.231-.609,1.04-1.967,1.144-2.637,2.11a.661.661,0,0,0,.952-.019,3.138,3.138,0,0,0,1.539-.393.716.716,0,0,1,.353-.142C122.669,374.484,123.051,374.663,123.447,374.6Z" transform="translate(-55.539 -264.001)" fill="#03aa6f"/>
      <path id="Path_4998" data-name="Path 4998" d="M44.207,272.835l-.007.008,0,0,0,0Z" transform="translate(-39.702 -242.966)" fill="#03aa6f"/>
      <path id="Path_4999" data-name="Path 4999" d="M54.726,262.036c-.024.028-.047.057-.068.086l0,0,0,0C54.682,262.093,54.7,262.064,54.726,262.036Z" transform="translate(-41.903 -240.693)" fill="#03aa6f"/>
      <path id="Path_5000" data-name="Path 5000" d="M45.57,272.136a1.71,1.71,0,0,0-.263.255l-.012.014c.093-.092.188-.182.28-.273Z" transform="translate(-39.932 -242.818)" fill="#03aa6f"/>
      <path id="Path_5001" data-name="Path 5001" d="M44.211,272.835h0l0,0h0Z" transform="translate(-39.704 -242.966)" fill="#03aa6f"/>
      <path id="Path_5002" data-name="Path 5002" d="M45.584,272.445a2.162,2.162,0,0,0-.163.867c.039.088.132.028.207-.021l-.032.018-.02,0c-.028-.068.068-.3.412-.991.373-.751.5-1.019.427-1.084-.065,0-.126.047-.309.217.034-.037.069-.073.1-.113-.036.034-.071.071-.107.107l.041-.046c-.264.278-.264.278-.542.545C45.738,271.869,45.718,272,45.584,272.445Zm.375-.851.107-.111,0,0-.144.145Zm.014,0-.006.008-.05.052Z" transform="translate(-39.955 -242.629)" fill="#03aa6f"/>
      <path id="Path_5003" data-name="Path 5003" d="M43.545,272.831l-.006.006.027-.031a.265.265,0,0,0-.042.047l-.028.018a.387.387,0,0,1,.081-.172q-1.252,1.654-2.414,3.377l.056-.081C42.249,274.56,43.315,273.074,43.545,272.831Z" transform="translate(-39.062 -242.937)" fill="#03aa6f"/>
      <path id="Path_5004" data-name="Path 5004" d="M103.191,423.34l.194.048c.733.178.733.178.795.2-1.018-.115-2-.415-3.022-.525a52.014,52.014,0,0,0,8.621,1.142l.306.021C103.9,423.495,103.9,423.495,103.191,423.34Z" transform="translate(-51.693 -274.593)" fill="#03aa6f"/>
      <path id="Path_5005" data-name="Path 5005" d="M111.507,424.48c.386.048.774.071,1.161.1-.237-.028-.473-.055-.711-.079C111.809,424.493,111.658,424.483,111.507,424.48Z" transform="translate(-53.871 -274.891)" fill="#03aa6f"/>
      <path id="Path_5006" data-name="Path 5006" d="M98.213,421.711a47.818,47.818,0,0,1-6.031-1.826l.073.036c-2.079-.232-3.8-1.425-5.706-2.121-1.139-.411-2.316-.7-3.47-1.068,1.211.5,2.237.912,3.893,1.522,5.859,2.164,5.859,2.164,5.9,2.2a.5.5,0,0,1-.247,0l-.07-.02a.263.263,0,0,0-.031-.008l-.1-.032c-.024-.006-.024-.006-.026-.008l-.2-.05.1.043-.021,0,.021.006.061.017A46.613,46.613,0,0,0,98,421.69C98.061,421.7,98.148,421.7,98.213,421.711Z" transform="translate(-47.887 -273.26)" fill="#03aa6f"/>
      <path id="Path_5007" data-name="Path 5007" d="M44.206,272.837l0,0-.011.011Z" transform="translate(-39.699 -242.966)" fill="#03aa6f"/>
      <path id="Path_5008" data-name="Path 5008" d="M112.978,424.61c.3.034.6.066.894.11A8.544,8.544,0,0,0,112.978,424.61Z" transform="translate(-54.181 -274.919)" fill="#03aa6f"/>
      <path id="Path_5009" data-name="Path 5009" d="M63.181,253.744c.2-.147.4-.29.6-.435l-.025.018Z" transform="translate(-43.698 -238.855)" fill="#03aa6f"/>
      <path id="Path_5010" data-name="Path 5010" d="M42.277,381.807l.029.066.038.077c-.021-.044-.047-.1-.068-.144Z" transform="translate(-39.296 -265.907)" fill="#03aa6f"/>
    </g>
    <g id="Group_19420" data-name="Group 19420" transform="translate(114.227 25.226)">
      <path id="Path_5011" data-name="Path 5011" d="M144.235,250.434a75,75,0,0,1-103.8,103.8,75,75,0,1,0,103.8-103.8Z" transform="translate(-30.477 -240.476)" fill="#dbdbdb" style="mix-blend-mode: multiply;isolation: isolate"/>
      <path id="Path_5012" data-name="Path 5012" d="M27.821,292.4c1.632.161,3.284.247,4.959.247a49.868,49.868,0,0,0,49.868-49.868c0-1.674-.086-3.327-.247-4.959A75.12,75.12,0,0,0,27.821,292.4Z" transform="translate(-27.821 -237.82)" fill="#262626" style="mix-blend-mode: screen;isolation: isolate"/>
    </g>
  </g>
</svg>
